<?xml version="1.0" encoding="utf-8"?>
<!-- Generator: Adobe Illustrator 26.3.1, SVG Export Plug-In . SVG Version: 6.00 Build 0)  -->
<svg version="1.1" id="Layer_1" xmlns="http://www.w3.org/2000/svg" xmlns:xlink="http://www.w3.org/1999/xlink" x="0px" y="0px"
	 viewBox="0 0 640 480" style="enable-background:new 0 0 640 480;" xml:space="preserve">
<style type="text/css">
	.st0{fill:#FBB03B;}
	.st1{fill:none;stroke:#FBB03B;stroke-width:5;stroke-miterlimit:10;}
	.st2{fill:none;stroke:#FBB03B;stroke-width:3;stroke-miterlimit:10;}
</style>
<circle class="st0" cx="109.79" cy="61.81" r="8.02"/>
<circle class="st0" cx="171.13" cy="61.81" r="8.02"/>
<circle class="st0" cx="172.21" cy="115.51" r="8.02"/>
<circle class="st0" cx="171.13" cy="173.84" r="8.02"/>
<circle class="st0" cx="172.21" cy="228.93" r="8.02"/>
<circle class="st0" cx="171.95" cy="273.96" r="8.02"/>
<circle class="st0" cx="171.95" cy="327" r="8.02"/>
<circle class="st0" cx="141.01" cy="433.07" r="8.02"/>
<circle class="st0" cx="109.79" cy="327" r="8.02"/>
<circle class="st0" cx="109.79" cy="273.96" r="8.02"/>
<circle class="st0" cx="109.79" cy="220.92" r="8.02"/>
<circle class="st0" cx="109.79" cy="167.88" r="8.02"/>
<circle class="st0" cx="109.79" cy="114.85" r="8.02"/>
<circle class="st0" cx="140.87" cy="61.81" r="8.02"/>
<circle class="st0" cx="109.85" cy="380.03" r="8.02"/>
<circle class="st0" cx="223.56" cy="61.81" r="8.02"/>
<circle class="st0" cx="278.69" cy="114.85" r="8.02"/>
<circle class="st0" cx="172.21" cy="433.07" r="8.02"/>
<circle class="st0" cx="334.02" cy="114.85" r="8.02"/>
<circle class="st0" cx="223.56" cy="114.85" r="8.02"/>
<circle class="st0" cx="278.69" cy="61.81" r="8.02"/>
<circle class="st0" cx="109.63" cy="433.07" r="8.02"/>
<circle class="st0" cx="172.18" cy="380.03" r="8.02"/>
<circle class="st0" cx="334.02" cy="61.81" r="8.02"/>
<line class="st1" x1="109.47" y1="53.79" x2="109.91" y2="433.07"/>
<line class="st1" x1="171.95" y1="228.93" x2="172.4" y2="439.08"/>
<line class="st1" x1="110.54" y1="433.07" x2="169.34" y2="433.07"/>
<line class="st1" x1="109.63" y1="61.81" x2="168.43" y2="61.81"/>
<line class="st1" x1="177.89" y1="61.81" x2="334.02" y2="61.81"/>
<line class="st1" x1="171.95" y1="114.85" x2="327.8" y2="114.85"/>
<line class="st1" x1="334.02" y1="56.04" x2="334.02" y2="114.85"/>
<line class="st1" x1="171.13" y1="172.21" x2="171.13" y2="117.85"/>
<line class="st2" x1="139.94" y1="64.73" x2="109.85" y2="115.51"/>
<line class="st2" x1="171.95" y1="380.03" x2="109.85" y2="435.84"/>
<line class="st2" x1="170.02" y1="114.85" x2="110.54" y2="167.88"/>
<line class="st2" x1="171.95" y1="228.93" x2="110.54" y2="273.96"/>
<line class="st2" x1="171.73" y1="270.32" x2="110.54" y2="327"/>
<line class="st2" x1="172.23" y1="321.23" x2="110.54" y2="380.03"/>
<line class="st2" x1="110.54" y1="380.03" x2="174.16" y2="436.11"/>
<line class="st2" x1="109.32" y1="325.47" x2="172.94" y2="381.56"/>
<line class="st2" x1="109.32" y1="272.44" x2="172.94" y2="328.52"/>
<line class="st2" x1="106.97" y1="219.4" x2="170.6" y2="275.48"/>
<line class="st2" x1="110.54" y1="166.44" x2="171.95" y2="228.93"/>
<line class="st2" x1="109.85" y1="115.51" x2="171.13" y2="175.61"/>
<line class="st2" x1="109.85" y1="388.05" x2="144.7" y2="435.98"/>
<line class="st2" x1="171.13" y1="380.77" x2="138.71" y2="437.8"/>
<line class="st2" x1="107.74" y1="325.48" x2="175.03" y2="437.1"/>
<line class="st2" x1="109.85" y1="220.92" x2="170.83" y2="172.7"/>
<line class="st2" x1="110.54" y1="273.96" x2="171.13" y2="379.96"/>
<line class="st2" x1="110.33" y1="326.37" x2="173.96" y2="382.45"/>
<line class="st2" x1="108.7" y1="220.92" x2="170.6" y2="327.52"/>
<line class="st2" x1="109.85" y1="114.85" x2="171.95" y2="228.93"/>
<line class="st2" x1="110.54" y1="61.81" x2="173.96" y2="175.22"/>
<line class="st2" x1="170.6" y1="275.48" x2="106.68" y2="385.25"/>
<line class="st2" x1="110.54" y1="169.2" x2="172.09" y2="276.8"/>
<line class="st2" x1="223.56" y1="61.81" x2="113.11" y2="118.16"/>
<line class="st2" x1="278.69" y1="62.34" x2="332.08" y2="114.85"/>
<line class="st2" x1="225.64" y1="61.81" x2="277.88" y2="114.85"/>
<line class="st2" x1="171.13" y1="61.81" x2="226.68" y2="118.16"/>
<line class="st2" x1="331.11" y1="61.81" x2="281.69" y2="111.88"/>
<line class="st2" x1="278.69" y1="62.34" x2="223.86" y2="116.51"/>
<line class="st2" x1="223.56" y1="63.07" x2="171.13" y2="116.19"/>
<line class="st2" x1="176.7" y1="58.82" x2="109.85" y2="114.85"/>
<line class="st2" x1="336.05" y1="60.41" x2="223.41" y2="114.85"/>
<line class="st2" x1="279.4" y1="60.41" x2="171.95" y2="114.85"/>
<line class="st2" x1="171.13" y1="63.49" x2="330.52" y2="112.96"/>
<line class="st2" x1="109.63" y1="61.81" x2="170.02" y2="114.85"/>
<line class="st2" x1="139.94" y1="61.81" x2="174.82" y2="113.39"/>
<circle class="st0" cx="278.69" cy="228.94" r="8.02"/>
<circle class="st0" cx="278.69" cy="173.84" r="8.02"/>
<line class="st1" x1="278.83" y1="170.12" x2="278.83" y2="228.93"/>
<circle class="st0" cx="222.32" cy="176.66" r="8.02"/>
<circle class="st0" cx="222.32" cy="228.94" r="8.02"/>
<line class="st1" x1="278.86" y1="228.94" x2="170.2" y2="228.94"/>
<line class="st1" x1="275.88" y1="173.84" x2="167.22" y2="173.84"/>
<line class="st2" x1="169.82" y1="173.2" x2="221.55" y2="228.94"/>
<line class="st2" x1="220.62" y1="175.48" x2="278.69" y2="228.93"/>
<line class="st2" x1="278.69" y1="173.84" x2="170.99" y2="227.42"/>
<line class="st2" x1="278.69" y1="175.9" x2="221.1" y2="231.38"/>
<line class="st2" x1="223.11" y1="173.68" x2="169.34" y2="227.45"/>
<line class="st2" x1="171.48" y1="175.77" x2="275.88" y2="228.94"/>
<line class="st2" x1="223.68" y1="178.29" x2="109.79" y2="220.92"/>
</svg>
