<svg xmlns="http://www.w3.org/2000/svg" xmlns:xlink="http://www.w3.org/1999/xlink" id="Layer_1" x="0" y="0" version="1.1" viewBox="0 0 640 480" style="enable-background:new 0 0 640 480" xml:space="preserve"><style type="text/css">.st0{fill:#fbb03b}.st1,.st2{fill:none;stroke:#fbb03b;stroke-width:5;stroke-miterlimit:10}.st2{stroke-width:3}</style><circle cx="211.79" cy="61.81" r="8.02" class="st0"/><circle cx="273.13" cy="61.81" r="8.02" class="st0"/><circle cx="274.21" cy="115.51" r="8.02" class="st0"/><circle cx="273.13" cy="173.84" r="8.02" class="st0"/><circle cx="274.21" cy="228.93" r="8.02" class="st0"/><circle cx="273.95" cy="273.96" r="8.02" class="st0"/><circle cx="273.95" cy="327" r="8.02" class="st0"/><circle cx="243.01" cy="433.07" r="8.02" class="st0"/><circle cx="211.79" cy="327" r="8.02" class="st0"/><circle cx="211.79" cy="273.96" r="8.02" class="st0"/><circle cx="211.79" cy="220.92" r="8.02" class="st0"/><circle cx="211.79" cy="167.88" r="8.02" class="st0"/><circle cx="211.79" cy="114.85" r="8.02" class="st0"/><circle cx="242.87" cy="61.81" r="8.02" class="st0"/><circle cx="211.85" cy="380.03" r="8.02" class="st0"/><circle cx="325.56" cy="61.81" r="8.02" class="st0"/><circle cx="380.69" cy="114.85" r="8.02" class="st0"/><circle cx="274.21" cy="433.07" r="8.02" class="st0"/><circle cx="436.02" cy="114.85" r="8.02" class="st0"/><circle cx="325.56" cy="114.85" r="8.02" class="st0"/><circle cx="380.69" cy="61.81" r="8.02" class="st0"/><circle cx="211.63" cy="433.07" r="8.02" class="st0"/><circle cx="274.18" cy="380.03" r="8.02" class="st0"/><circle cx="436.02" cy="61.81" r="8.02" class="st0"/><line x1="211.47" x2="211.91" y1="53.79" y2="433.07" class="st1"/><line x1="273.95" x2="274.4" y1="228.93" y2="439.08" class="st1"/><line x1="212.54" x2="271.34" y1="433.07" y2="433.07" class="st1"/><line x1="211.63" x2="270.43" y1="61.81" y2="61.81" class="st1"/><line x1="279.89" x2="436.02" y1="61.81" y2="61.81" class="st1"/><line x1="273.95" x2="429.8" y1="114.85" y2="114.85" class="st1"/><line x1="436.02" x2="436.02" y1="56.04" y2="114.85" class="st1"/><line x1="273.13" x2="273.13" y1="172.21" y2="117.85" class="st1"/><line x1="241.94" x2="211.85" y1="64.73" y2="115.51" class="st2"/><line x1="273.95" x2="211.85" y1="380.03" y2="435.84" class="st2"/><line x1="272.02" x2="212.54" y1="114.85" y2="167.88" class="st2"/><line x1="273.95" x2="212.54" y1="228.93" y2="273.96" class="st2"/><line x1="273.73" x2="212.54" y1="270.32" y2="327" class="st2"/><line x1="274.23" x2="212.54" y1="321.23" y2="380.03" class="st2"/><line x1="212.54" x2="276.16" y1="380.03" y2="436.11" class="st2"/><line x1="211.32" x2="274.94" y1="325.47" y2="381.56" class="st2"/><line x1="211.32" x2="274.94" y1="272.44" y2="328.52" class="st2"/><line x1="208.97" x2="272.6" y1="219.4" y2="275.48" class="st2"/><line x1="212.54" x2="273.95" y1="166.44" y2="228.93" class="st2"/><line x1="211.85" x2="273.13" y1="115.51" y2="175.61" class="st2"/><line x1="211.85" x2="246.7" y1="388.05" y2="435.98" class="st2"/><line x1="273.13" x2="240.71" y1="380.77" y2="437.8" class="st2"/><line x1="209.74" x2="277.03" y1="325.48" y2="437.1" class="st2"/><line x1="211.85" x2="272.83" y1="220.92" y2="172.7" class="st2"/><line x1="212.54" x2="273.13" y1="273.96" y2="379.96" class="st2"/><line x1="212.33" x2="275.96" y1="326.37" y2="382.45" class="st2"/><line x1="210.7" x2="272.6" y1="220.92" y2="327.52" class="st2"/><line x1="211.85" x2="273.95" y1="114.85" y2="228.93" class="st2"/><line x1="212.54" x2="275.96" y1="61.81" y2="175.22" class="st2"/><line x1="272.6" x2="208.68" y1="275.48" y2="385.25" class="st2"/><line x1="212.54" x2="274.09" y1="169.2" y2="276.8" class="st2"/><line x1="325.56" x2="215.11" y1="61.81" y2="118.16" class="st2"/><line x1="380.69" x2="434.08" y1="62.34" y2="114.85" class="st2"/><line x1="327.64" x2="379.88" y1="61.81" y2="114.85" class="st2"/><line x1="273.13" x2="328.68" y1="61.81" y2="118.16" class="st2"/><line x1="433.11" x2="383.69" y1="61.81" y2="111.88" class="st2"/><line x1="380.69" x2="325.86" y1="62.34" y2="116.51" class="st2"/><line x1="325.56" x2="273.13" y1="63.07" y2="116.19" class="st2"/><line x1="278.7" x2="211.85" y1="58.82" y2="114.85" class="st2"/><line x1="438.05" x2="325.41" y1="60.41" y2="114.85" class="st2"/><line x1="381.4" x2="273.95" y1="60.41" y2="114.85" class="st2"/><line x1="273.13" x2="432.52" y1="63.49" y2="112.96" class="st2"/><line x1="211.63" x2="272.02" y1="61.81" y2="114.85" class="st2"/><line x1="241.94" x2="276.82" y1="61.81" y2="113.39" class="st2"/><circle cx="380.69" cy="228.94" r="8.02" class="st0"/><circle cx="380.69" cy="173.84" r="8.02" class="st0"/><line x1="380.83" x2="380.83" y1="170.12" y2="228.93" class="st1"/><circle cx="324.32" cy="176.66" r="8.02" class="st0"/><circle cx="324.32" cy="228.94" r="8.02" class="st0"/><line x1="380.86" x2="272.2" y1="228.94" y2="228.94" class="st1"/><line x1="377.88" x2="269.22" y1="173.84" y2="173.84" class="st1"/><line x1="271.82" x2="323.55" y1="173.2" y2="228.94" class="st2"/><line x1="322.62" x2="380.69" y1="175.48" y2="228.93" class="st2"/><line x1="380.69" x2="272.99" y1="173.84" y2="227.42" class="st2"/><line x1="380.69" x2="323.1" y1="175.9" y2="231.38" class="st2"/><line x1="325.11" x2="271.34" y1="173.68" y2="227.45" class="st2"/><line x1="273.48" x2="377.88" y1="175.77" y2="228.94" class="st2"/><line x1="325.68" x2="211.79" y1="178.29" y2="220.92" class="st2"/></svg>