<?xml version="1.0" encoding="utf-8"?>
<!-- Generator: Adobe Illustrator 26.3.1, SVG Export Plug-In . SVG Version: 6.00 Build 0)  -->
<svg version="1.1" id="Layer_1" xmlns="http://www.w3.org/2000/svg" xmlns:xlink="http://www.w3.org/1999/xlink" x="0px" y="0px"
	 viewBox="0 0 800 600" style="enable-background:new 0 0 800 600;" xml:space="preserve">
<style type="text/css">
	.st0{fill:#FCA311;}
	.st1{fill:#FCA311;stroke:#FF9933;stroke-width:6;stroke-miterlimit:10;}
	.st2{fill:#FCA311;stroke:#FF9933;stroke-width:3;stroke-miterlimit:10;}
</style>
<ellipse class="st0" cx="178.04" cy="174.1" rx="10.64" ry="10.73"/>
<ellipse class="st0" cx="248.33" cy="174.1" rx="10.64" ry="10.73"/>
<ellipse class="st0" cx="248.33" cy="335.89" rx="10.64" ry="10.73"/>
<ellipse class="st0" cx="248.33" cy="497.67" rx="10.64" ry="10.73"/>
<ellipse class="st0" cx="213.18" cy="497.67" rx="10.64" ry="10.73"/>
<ellipse class="st0" cx="178.04" cy="497.67" rx="10.64" ry="10.73"/>
<ellipse class="st0" cx="178.04" cy="335.89" rx="10.64" ry="10.73"/>
<ellipse class="st0" cx="213.18" cy="174.1" rx="10.64" ry="10.73"/>
<line class="st1" x1="178.04" y1="174.1" x2="178.04" y2="335.89"/>
<ellipse class="st0" cx="273.63" cy="227.46" rx="12.28" ry="10.54"/>
<line class="st1" x1="178.04" y1="335.37" x2="178.04" y2="497.15"/>
<line class="st1" x1="249.77" y1="174.1" x2="249.77" y2="335.89"/>
<line class="st1" x1="249.77" y1="340.04" x2="249.77" y2="501.82"/>
<line class="st1" x1="247.18" y1="497.67" x2="178.53" y2="497.67"/>
<line class="st1" x1="247.18" y1="174.1" x2="178.53" y2="174.1"/>
<line class="st2" x1="248.33" y1="335.89" x2="182.18" y2="174.1"/>
<line class="st2" x1="245.93" y1="497.15" x2="179.78" y2="335.37"/>
<line class="st2" x1="178.04" y1="497.15" x2="248.33" y2="335.37"/>
<line class="st2" x1="176.78" y1="335.89" x2="248.33" y2="178.83"/>
<line class="st2" x1="178.04" y1="497.15" x2="251.95" y2="174.1"/>
<line class="st2" x1="248.33" y1="497.15" x2="181.92" y2="174.21"/>
<ellipse class="st0" cx="273.63" cy="174.81" rx="12.28" ry="10.54"/>
<ellipse class="st0" cx="354.77" cy="174.81" rx="12.28" ry="10.54"/>
<ellipse class="st0" cx="435.92" cy="174.81" rx="12.28" ry="10.54"/>
<ellipse class="st0" cx="354.77" cy="227.46" rx="12.28" ry="10.54"/>
<ellipse class="st0" cx="435.92" cy="227.46" rx="12.28" ry="10.54"/>
<line class="st1" x1="273.63" y1="227.46" x2="435.92" y2="227.46"/>
<line class="st1" x1="268.73" y1="175.32" x2="431.03" y2="175.32"/>
<line class="st1" x1="273.63" y1="178.57" x2="273.63" y2="238"/>
<line class="st1" x1="435.92" y1="164.78" x2="435.92" y2="232.79"/>
<line class="st2" x1="273.63" y1="227.46" x2="354.77" y2="175.32"/>
<line class="st2" x1="435.92" y1="227.46" x2="354.77" y2="174.81"/>
<line class="st2" x1="352.68" y1="229.58" x2="433.83" y2="177.44"/>
<line class="st2" x1="355.98" y1="227.46" x2="271.63" y2="173.15"/>
<line class="st2" x1="273.63" y1="227.46" x2="438" y2="172.71"/>
<line class="st2" x1="435.92" y1="227.46" x2="269.61" y2="170.64"/>
<line class="st2" x1="248.33" y1="335.37" x2="214.24" y2="176.47"/>
<line class="st2" x1="179.78" y1="335.37" x2="215.25" y2="171.45"/>
<line class="st2" x1="212.55" y1="497.15" x2="176.62" y2="338.2"/>
<line class="st2" x1="214.99" y1="497.67" x2="250.27" y2="332.75"/>
<ellipse class="st0" cx="275.24" cy="315.93" rx="13.89" ry="10.54"/>
<ellipse class="st0" cx="353.16" cy="315.93" rx="13.89" ry="10.54"/>
<line class="st1" x1="353.16" y1="267.24" x2="353.16" y2="320.2"/>
<line class="st1" x1="275.51" y1="267.24" x2="275.51" y2="320.2"/>
<line class="st1" x1="346.85" y1="273.51" x2="281.56" y2="273.51"/>
<line class="st1" x1="342.46" y1="315.93" x2="285.53" y2="315.93"/>
<ellipse class="st0" cx="314.2" cy="315.93" rx="13.89" ry="10.54"/>
<ellipse class="st0" cx="275.24" cy="273.51" rx="13.89" ry="10.54"/>
<ellipse class="st0" cx="353.16" cy="273.51" rx="13.89" ry="10.54"/>
<ellipse class="st0" cx="314.2" cy="273.51" rx="13.89" ry="10.54"/>
<line class="st2" x1="275.24" y1="311.55" x2="353.16" y2="273.51"/>
<line class="st2" x1="275.97" y1="273.2" x2="353.16" y2="315.93"/>
</svg>
