<svg xmlns="http://www.w3.org/2000/svg" xmlns:xlink="http://www.w3.org/1999/xlink" id="Layer_1" x="0" y="0" version="1.1" viewBox="0 0 397 480" style="enable-background:new 0 0 397 480" xml:space="preserve"><style type="text/css">.st0,.st1{stroke:#000;stroke-width:5;stroke-miterlimit:10}.st1{stroke-width:3}</style><ellipse cx="96.3" cy="33.1" rx="9.1" ry="9.1"/><ellipse cx="166.3" cy="33.1" rx="9.1" ry="9.1"/><ellipse cx="167.5" cy="94.3" rx="9.1" ry="9.1"/><ellipse cx="166.3" cy="160.7" rx="9.1" ry="9.1"/><ellipse cx="167.5" cy="223.4" rx="9.1" ry="9.1"/><ellipse cx="167.2" cy="274.7" rx="9.1" ry="9.1"/><ellipse cx="167.2" cy="335.1" rx="9.1" ry="9.1"/><ellipse cx="131.9" cy="455.9" rx="9.1" ry="9.1"/><ellipse cx="96.3" cy="335.1" rx="9.1" ry="9.1"/><ellipse cx="96.3" cy="274.7" rx="9.1" ry="9.1"/><ellipse cx="96.3" cy="214.3" rx="9.1" ry="9.1"/><ellipse cx="96.3" cy="153.9" rx="9.1" ry="9.1"/><ellipse cx="96.3" cy="93.5" rx="9.1" ry="9.1"/><ellipse cx="131.8" cy="33.1" rx="9.1" ry="9.1"/><ellipse cx="96.4" cy="395.5" rx="9.1" ry="9.1"/><ellipse cx="226.1" cy="33.1" rx="9.1" ry="9.1"/><ellipse cx="289" cy="93.5" rx="9.1" ry="9.1"/><ellipse cx="167.5" cy="455.9" rx="9.1" ry="9.1"/><ellipse cx="352.1" cy="93.5" rx="9.1" ry="9.1"/><ellipse cx="226.1" cy="93.5" rx="9.1" ry="9.1"/><ellipse cx="289" cy="33.1" rx="9.1" ry="9.1"/><ellipse cx="96.1" cy="455.9" rx="9.1" ry="9.1"/><ellipse cx="167.5" cy="395.5" rx="9.1" ry="9.1"/><ellipse cx="352.1" cy="33.1" rx="9.1" ry="9.1"/><line x1="96" x2="96.5" y1="24" y2="455.9" class="st0"/><line x1="167.2" x2="167.7" y1="223.4" y2="462.7" class="st0"/><line x1="97.2" x2="164.2" y1="455.9" y2="455.9" class="st0"/><line x1="96.1" x2="163.2" y1="33.1" y2="33.1" class="st0"/><line x1="174" x2="352.1" y1="33.1" y2="33.1" class="st0"/><line x1="167.2" x2="345" y1="93.5" y2="93.5" class="st0"/><line x1="352.1" x2="352.1" y1="26.6" y2="93.5" class="st0"/><line x1="166.3" x2="166.3" y1="158.8" y2="96.9" class="st0"/><line x1="130.7" x2="96.4" y1="36.5" y2="94.3" class="st1"/><line x1="167.2" x2="96.4" y1="395.5" y2="459" class="st1"/><line x1="165" x2="97.2" y1="93.5" y2="153.9" class="st1"/><line x1="167.2" x2="97.2" y1="223.4" y2="274.7" class="st1"/><line x1="167" x2="97.2" y1="270.6" y2="335.1" class="st1"/><line x1="167.5" x2="97.2" y1="328.5" y2="395.5" class="st1"/><line x1="97.2" x2="169.7" y1="395.5" y2="459.3" class="st1"/><line x1="95.8" x2="168.3" y1="333.3" y2="397.2" class="st1"/><line x1="95.8" x2="168.3" y1="273" y2="336.8" class="st1"/><line x1="93.1" x2="165.7" y1="212.6" y2="276.4" class="st1"/><line x1="97.2" x2="167.2" y1="152.3" y2="223.4" class="st1"/><line x1="96.4" x2="166.3" y1="94.3" y2="162.7" class="st1"/><line x1="96.4" x2="136.1" y1="404.6" y2="459.2" class="st1"/><line x1="166.3" x2="129.3" y1="396.3" y2="461.3" class="st1"/><line x1="94" x2="170.7" y1="333.4" y2="460.5" class="st1"/><line x1="96.4" x2="165.9" y1="214.3" y2="159.4" class="st1"/><line x1="97.2" x2="166.3" y1="274.7" y2="395.4" class="st1"/><line x1="96.9" x2="169.5" y1="334.4" y2="398.2" class="st1"/><line x1="95.1" x2="165.7" y1="214.3" y2="335.7" class="st1"/><line x1="96.4" x2="167.2" y1="93.5" y2="223.4" class="st1"/><line x1="97.2" x2="169.5" y1="33.1" y2="162.3" class="st1"/><line x1="165.7" x2="92.8" y1="276.4" y2="401.4" class="st1"/><line x1="97.2" x2="167.4" y1="155.4" y2="277.9" class="st1"/><line x1="226.1" x2="100.1" y1="33.1" y2="97.3" class="st1"/><line x1="289" x2="349.8" y1="33.7" y2="93.5" class="st1"/><line x1="228.5" x2="288" y1="33.1" y2="93.5" class="st1"/><line x1="166.3" x2="229.6" y1="33.1" y2="97.3" class="st1"/><line x1="348.7" x2="292.4" y1="33.1" y2="90.1" class="st1"/><line x1="289" x2="226.4" y1="33.7" y2="95.4" class="st1"/><line x1="226.1" x2="166.3" y1="34.6" y2="95.1" class="st1"/><line x1="172.6" x2="96.4" y1="29.7" y2="93.5" class="st1"/><line x1="354.4" x2="225.9" y1="31.5" y2="93.5" class="st1"/><line x1="289.8" x2="167.2" y1="31.5" y2="93.5" class="st1"/><line x1="166.3" x2="348.1" y1="35" y2="91.4" class="st1"/><line x1="96.1" x2="165" y1="33.1" y2="93.5" class="st1"/><line x1="130.7" x2="170.5" y1="33.1" y2="91.9" class="st1"/><ellipse cx="289" cy="223.4" rx="9.1" ry="9.1"/><ellipse cx="289" cy="160.7" rx="9.1" ry="9.1"/><line x1="289.1" x2="289.1" y1="156.5" y2="223.4" class="st0"/><ellipse cx="226.1" cy="160.7" rx="9.1" ry="9.1"/><ellipse cx="224.7" cy="223.4" rx="9.1" ry="9.1"/><line x1="289.1" x2="165.2" y1="223.4" y2="223.4" class="st0"/><line x1="285.7" x2="161.8" y1="160.7" y2="160.7" class="st0"/><line x1="164.8" x2="223.8" y1="160" y2="223.4" class="st1"/><line x1="222.7" x2="289" y1="162.6" y2="223.4" class="st1"/><line x1="289" x2="166.1" y1="160.7" y2="221.7" class="st1"/><line x1="289" x2="223.3" y1="163" y2="226.2" class="st1"/><line x1="225.6" x2="164.2" y1="160.5" y2="221.7" class="st1"/><line x1="166.7" x2="285.7" y1="162.9" y2="223.4" class="st1"/><line x1="225.6" x2="96.3" y1="160.5" y2="214.3" class="st1"/></svg>