<?xml version="1.0" standalone="no"?>
<!DOCTYPE svg PUBLIC "-//W3C//DTD SVG 20010904//EN"
 "http://www.w3.org/TR/2001/REC-SVG-20010904/DTD/svg10.dtd">
<svg version="1.0" xmlns="http://www.w3.org/2000/svg"
 width="700.000000pt" height="700.000000pt" viewBox="0 0 700.000000 700.000000"
 preserveAspectRatio="xMidYMid meet">
<metadata>
Created by potrace 1.14, written by Peter Selinger 2001-2017
</metadata>
<g transform="translate(0.000000,700.000000) scale(0.100000,-0.100000)"
fill="#000000" stroke="none">
<path d="M3517 5074 c-1 -1 -37 -4 -79 -8 -43 -4 -83 -8 -90 -11 -7 -2 -26 -6
-43 -8 -64 -9 -204 -51 -298 -89 -177 -72 -298 -144 -448 -265 -137 -110 -319
-322 -319 -371 0 -20 12 -9 62 59 65 87 219 248 298 311 231 183 549 314 836
345 90 10 290 10 378 0 232 -25 518 -128 701 -252 359 -244 587 -558 699 -965
46 -167 64 -438 41 -615 -38 -294 -148 -560 -332 -804 -37 -50 -41 -61 -15
-54 23 6 123 147 184 261 75 137 142 319 174 473 25 123 33 433 13 562 -61
408 -265 773 -584 1044 -202 172 -534 330 -750 359 -27 3 -52 8 -55 9 -18 11
-361 29 -373 19z"/>
<path d="M2740 4078 c-19 -5 -177 -11 -350 -13 -173 -2 -319 -4 -323 -4 -5 -1
-5 -6 -2 -11 4 -6 12 -10 18 -9 33 4 52 -4 83 -35 l34 -34 0 -531 c0 -584 1
-575 -60 -606 -16 -8 -40 -15 -55 -15 -14 0 -25 -4 -25 -10 0 -6 74 -10 201
-10 187 0 243 9 150 24 -27 4 -47 16 -65 37 -24 29 -26 37 -27 137 -1 249 0
383 5 390 8 13 313 7 340 -7 26 -14 46 -50 46 -81 0 -11 5 -20 10 -20 13 0 12
277 -1 286 -5 3 -9 -9 -9 -26 0 -22 -9 -41 -29 -61 l-29 -29 -166 0 -166 0 0
38 c-1 58 -1 412 0 467 l0 51 198 -1 c108 -1 207 -4 219 -8 21 -8 56 -66 51
-88 -2 -6 2 -13 7 -15 6 -3 10 33 10 96 1 110 3 107 -65 88z"/>
<path d="M4905 4000 c-11 -4 -61 -50 -112 -101 -123 -126 -139 -144 -254 -289
-177 -221 -176 -220 -213 -220 -19 0 -56 -14 -92 -36 -95 -58 -165 -90 -223
-104 -49 -12 -55 -11 -67 5 -10 14 -9 23 8 53 11 21 24 41 29 46 13 15 11 46
-3 46 -7 0 -21 -7 -32 -15 -12 -9 -25 -11 -35 -6 -39 20 -122 -14 -189 -79
-39 -36 -41 -73 -4 -78 24 -4 107 40 176 93 l42 32 -14 -45 c-32 -96 37 -109
201 -38 l38 16 -7 -25 c-12 -50 39 -44 102 13 16 14 39 35 52 46 l23 20 -14
-33 c-40 -95 52 -110 218 -36 69 30 68 30 55 6 -17 -33 -12 -61 11 -61 33 0
85 28 177 97 47 34 87 61 90 59 5 -6 -24 -61 -80 -148 -40 -63 -59 -82 -106
-109 -202 -114 -483 -303 -559 -377 -108 -105 -56 -177 76 -105 135 74 427
330 541 475 11 14 41 38 67 53 37 22 263 167 282 181 1 1 0 7 -4 13 -3 7 -41
-13 -96 -49 -118 -80 -189 -121 -189 -111 0 5 6 13 13 19 22 19 89 162 83 177
-10 26 -31 17 -128 -54 -103 -75 -152 -104 -161 -94 -9 8 8 35 63 102 56 67
55 87 -1 36 -84 -75 -252 -140 -331 -126 -18 3 -6 40 22 71 16 18 27 37 24 41
-3 5 82 96 188 202 265 266 378 392 378 422 0 17 -20 24 -45 15z m-1 -52 c-62
-73 -391 -411 -363 -373 19 26 112 137 164 195 71 81 206 212 212 206 4 -3 -2
-16 -13 -28z m-610 -615 c-71 -62 -104 -86 -110 -80 -10 10 29 54 75 84 61 41
84 38 35 -4z m-423 -2 c-48 -39 -148 -93 -155 -83 -14 23 110 110 159 111 l30
0 -34 -28z m704 -369 c-120 -118 -266 -238 -360 -295 -68 -41 -125 -58 -125
-36 0 41 84 123 225 219 90 62 349 220 360 220 5 0 -39 -49 -100 -108z"/>
<path d="M3858 3725 c-2 -1 -34 -5 -73 -8 -60 -5 -121 -16 -254 -43 -41 -8
-97 -36 -83 -41 7 -3 50 4 95 16 45 11 100 23 122 26 22 4 51 8 65 11 14 3 75
8 136 11 122 6 208 -7 223 -35 12 -20 26 -9 17 13 -10 27 -76 47 -163 50 -46
1 -84 1 -85 0z"/>
<path d="M3645 3536 l-107 -114 -74 -17 c-45 -10 -72 -21 -68 -27 6 -9 51 -5
97 8 12 4 -2 -21 -38 -67 -50 -65 -95 -137 -95 -154 0 -3 7 -5 15 -5 8 0 15 6
15 13 0 13 82 135 98 146 4 3 20 22 35 42 24 32 32 36 79 39 29 2 79 3 111 2
42 -1 57 2 54 11 -3 8 -32 12 -94 12 -58 0 -89 4 -85 10 7 12 129 141 160 168
22 21 30 47 13 47 -5 0 -57 -51 -116 -114z"/>
<path d="M2241 2489 c-1 -36 65 -128 102 -142 26 -10 21 3 -31 69 -26 34 -52
70 -59 80 -11 18 -12 17 -12 -7z"/>
<path d="M2771 2020 c-14 -27 -22 -52 -18 -56 3 -3 9 5 13 20 3 14 10 26 14
26 4 0 11 11 14 25 7 26 20 32 31 15 3 -5 11 -10 18 -10 6 0 2 7 -9 15 -30 22
-37 18 -63 -35z"/>
<path d="M4420 2046 c0 -9 3 -16 8 -16 4 0 16 -16 26 -35 10 -19 23 -32 28
-29 5 4 0 16 -11 28 -12 12 -21 27 -21 33 0 6 -7 16 -15 23 -12 10 -15 10 -15
-4z"/>
<path d="M4343 2007 c6 -14 14 -24 16 -22 2 3 16 -4 31 -15 31 -22 40 -24 40
-11 0 5 -8 11 -17 14 -10 4 -32 18 -50 32 l-32 27 12 -25z"/>
<path d="M4422 2000 c0 -14 2 -19 5 -12 2 6 2 18 0 25 -3 6 -5 1 -5 -13z"/>
<path d="M2928 1935 c-26 -25 -43 -45 -37 -45 5 0 26 17 44 38 32 34 35 35 35
15 0 -13 -6 -23 -12 -23 -9 0 -9 -3 1 -9 8 -5 12 -18 8 -30 -3 -12 -1 -21 4
-21 5 0 9 27 9 60 0 33 -1 60 -3 60 -1 0 -23 -20 -49 -45z"/>
<path d="M4212 1955 c29 -16 45 -54 34 -80 -3 -9 -2 -13 4 -10 14 9 12 58 -2
77 -7 9 -24 19 -38 22 -24 7 -24 6 2 -9z"/>
<path d="M4366 1945 c8 -35 10 -39 17 -28 3 5 -1 19 -9 33 l-14 25 6 -30z"/>
<path d="M4154 1935 c-14 -21 -15 -31 -6 -51 15 -31 58 -52 74 -36 8 8 6 9 -9
6 -44 -12 -74 54 -42 92 6 8 9 14 5 14 -3 0 -13 -11 -22 -25z"/>
<path d="M3106 1878 c-8 -29 -13 -54 -11 -57 5 -5 25 45 25 64 0 7 7 21 16 29
13 14 13 16 0 16 -9 0 -20 -19 -30 -52z"/>
<path d="M3175 1906 c26 -19 27 -47 3 -73 -12 -13 -16 -23 -10 -23 14 0 42 40
42 61 0 16 -30 49 -45 49 -5 0 0 -6 10 -14z"/>
<path d="M3990 1906 c0 -2 11 -6 25 -8 13 -3 22 -1 19 3 -5 9 -44 13 -44 5z"/>
<path d="M3957 1879 c-21 -29 -3 -89 26 -89 5 0 3 8 -6 18 -20 22 -22 63 -5
80 7 7 9 12 6 12 -4 0 -13 -9 -21 -21z"/>
<path d="M3310 1885 c0 -4 7 -19 15 -34 13 -26 14 -59 1 -79 -3 -5 1 -9 9 -9
8 0 14 3 13 6 -3 27 6 50 27 73 14 15 21 29 16 32 -4 3 -13 -6 -19 -19 -15
-34 -31 -31 -38 5 -4 17 -10 30 -15 30 -5 0 -9 -2 -9 -5z"/>
<path d="M3498 1805 c-1 -36 0 -65 4 -65 8 0 15 121 6 126 -3 2 -8 -25 -10
-61z"/>
<path d="M3636 1838 c-20 -31 -10 -73 21 -89 38 -20 77 5 81 53 3 30 -1 39
-20 49 -22 12 -23 11 -5 -8 9 -11 17 -29 17 -41 0 -41 -51 -67 -78 -40 -18 18
-15 75 6 87 9 6 11 11 5 11 -7 0 -19 -10 -27 -22z"/>
<path d="M4045 1819 c-4 -6 -5 -12 -2 -15 2 -3 7 2 10 11 7 17 1 20 -8 4z"/>
</g>
</svg>
