<svg xmlns="http://www.w3.org/2000/svg" width="1280" height="1280" preserveAspectRatio="xMidYMid meet" version="1.0" viewBox="0 0 960 960"><metadata>Created by potrace 1.14, written by Peter Selinger 2001-2017</metadata><g fill="#000" stroke="none"><path d="M2706 9115 c-121 -42 -169 -178 -98 -279 15 -22 42 -46 59 -55 l33 -16 0 -431 0 -432 -29 -12 c-85 -35 -122 -166 -71 -252 20 -34 70 -78 90 -78 12 0 11 19 11 -445 1 -446 1 -425 -13 -425 -22 0 -75 -49 -93 -85 -45 -95 -8 -202 86 -249 l23 -11 1 -420 c0 -231 -1 -426 -3 -432 -2 -7 -9 -13 -15 -13 -22 0 -78 -53 -96 -92 -40 -88 5 -210 88 -239 l26 -9 0 -424 0 -423 -45 -34 c-24 -19 -52 -48 -62 -66 -47 -80 -20 -183 62 -238 l45 -30 1 -427 0 -427 -22 -5 c-30 -8 -92 -74 -99 -105 -14 -64 -14 -77 -3 -115 13 -42 78 -116 102 -116 8 0 17 -8 19 -18 3 -9 5 -203 5 -430 l0 -412 -29 -16 c-130 -67 -138 -240 -15 -318 l45 -28 0 -423 c1 -392 0 -424 -17 -431 -9 -4 -20 -8 -23 -8 -3 -1 -19 -12 -35 -26 -133 -112 -37 -337 136 -317 62 7 104 33 136 84 21 34 33 43 55 44 44 0 233 0 287 -1 44 0 48 -3 64 -38 38 -80 153 -114 238 -70 38 20 81 65 92 99 2 5 62 9 138 10 218 0 230 0 230 -13 0 -23 54 -81 94 -99 50 -23 93 -24 145 -3 136 54 152 237 28 318 l-42 27 -1 424 -2 425 32 19 c44 27 70 59 89 107 28 74 -11 170 -89 216 l-34 20 0 429 c0 318 3 429 12 429 22 0 75 49 93 86 40 85 13 187 -65 234 l-39 25 -1 90 c-1 171 -2 730 -1 746 1 8 21 29 45 46 90 63 107 167 44 259 -13 19 -29 34 -35 34 -7 0 -13 3 -13 8 0 4 -10 12 -22 17 l-22 10 -1 333 0 333 33 16 c35 17 92 79 92 100 0 8 13 13 33 14 159 2 758 1 761 -2 1 -2 13 -21 25 -41 71 -119 251 -114 315 10 12 24 23 32 44 33 234 5 907 -2 910 -10 10 -31 53 -78 87 -98 28 -15 53 -21 89 -19 63 2 101 21 138 67 67 83 46 205 -45 262 l-44 28 0 450 0 450 31 16 c65 33 98 92 95 168 -2 45 -9 62 -39 102 -20 26 -40 48 -45 49 -6 0 -22 6 -37 12 -71 29 -180 -13 -216 -85 l-19 -37 -448 0 -447 -1 -34 47 c-37 52 -89 83 -145 87 -55 4 -126 -34 -157 -83 -14 -23 -28 -43 -29 -45 -2 -3 -191 -5 -421 -5 l-417 -1 -18 33 c-21 38 -44 62 -82 82 l-28 15 -1 483 -1 482 33 11 c46 15 85 51 106 97 l17 38 81 2 c44 1 84 5 89 8 5 3 9 1 9 -3 0 -5 15 -7 33 -6 51 3 151 4 207 3 8 0 35 0 60 0 25 0 52 0 60 0 8 0 35 0 60 0 58 1 53 1 138 -2 74 -3 74 -3 101 -43 80 -118 251 -111 315 13 17 32 15 32 101 32 11 0 199 0 418 -1 l397 -1 14 -26 c62 -118 214 -138 304 -39 17 20 32 44 32 53 0 13 8 15 35 12 19 -2 35 -1 35 4 0 4 7 5 15 2 23 -9 105 -10 105 -1 0 5 5 5 11 1 6 -4 171 -7 365 -6 265 0 354 -3 354 -12 0 -22 62 -87 97 -101 71 -30 161 -13 205 39 84 97 61 232 -49 289 l-28 15 -1 425 -1 424 44 28 c77 48 109 156 70 232 -23 45 -84 91 -129 98 -69 12 -114 -3 -163 -52 -25 -24 -45 -51 -45 -59 0 -12 -69 -14 -460 -14 -396 0 -460 2 -460 15 0 26 -73 92 -117 105 -69 21 -127 6 -179 -46 -24 -24 -44 -50 -44 -59 0 -13 -54 -15 -457 -15 l-458 0 -15 32 c-8 18 -32 46 -53 62 -35 28 -46 31 -106 31 -60 0 -71 -3 -108 -32 -22 -18 -46 -46 -53 -63 l-12 -30 -422 0 -421 0 -20 36 c-29 54 -87 88 -152 91 -76 2 -134 -31 -168 -97 l-16 -30 -169 0 c-159 0 -169 1 -175 20 -3 11 -21 35 -39 54 -84 86 -223 68 -287 -36 l-24 -38 -175 0 -175 0 -20 36 c-38 70 -139 113 -209 89z m584 -236 c0 -4 15 -27 34 -52 l34 -44 -62 -104 c-35 -56 -67 -104 -72 -106 -5 -2 -27 14 -49 34 -23 21 -72 65 -110 98 -146 126 -155 135 -144 159 10 22 15 22 190 23 98 0 179 -3 179 -8z m704 -21 c14 -27 12 -58 -3 -58 -3 0 -26 -19 -51 -41 -25 -22 -70 -59 -100 -82 -30 -23 -67 -55 -82 -71 -17 -18 -32 -26 -37 -20 -5 5 -38 53 -75 107 l-67 98 25 30 c14 16 27 37 30 47 6 17 21 18 176 19 l170 1 14 -30z m1175 23 c0 -3 -72 -41 -159 -85 l-158 -79 -118 37 c-66 20 -126 39 -134 41 -73 19 -260 80 -260 85 0 4 187 7 415 7 228 0 415 -3 414 -6z m1201 0 c0 -8 -561 -292 -575 -291 -12 0 -275 267 -275 279 0 4 2 10 5 13 7 7 845 6 845 -1z m1185 -52 c-404 -196 -538 -260 -541 -257 -104 99 -254 254 -254 262 0 7 8 21 19 32 18 20 30 21 457 21 l438 0 -119 -58z m-1095 1 c0 -4 -86 -93 -191 -196 -106 -104 -205 -204 -222 -221 -17 -18 -36 -33 -43 -33 -14 0 -148 135 -152 153 -1 7 98 62 225 126 126 62 260 130 298 150 67 35 85 40 85 21z m-1325 -100 l-77 -77 -46 13 c-26 8 -54 17 -62 20 -9 3 38 32 120 73 74 38 137 64 139 59 2 -6 -31 -45 -74 -88z m-535 1 c117 -35 144 -45 154 -52 7 -6 -52 -40 -184 -107 -7 -3 -233 223 -238 237 -1 5 41 -6 95 -24 54 -17 132 -42 173 -54z m3205 34 c16 -10 17 -41 17 -425 -1 -228 -1 -420 -1 -427 -1 -6 -11 -15 -23 -19 -13 -3 -31 -13 -40 -22 -16 -14 -28 -5 -148 114 -72 71 -181 177 -241 237 -61 59 -109 111 -107 117 2 5 108 115 236 245 l234 235 27 -22 c16 -13 36 -28 46 -33z m-2075 -210 c0 -3 -32 -21 -71 -40 -51 -24 -76 -31 -88 -25 -14 8 -268 89 -296 94 -27 6 -131 41 -138 47 -14 11 116 139 140 139 12 0 24 -4 27 -8 10 -17 98 -3 139 21 l42 25 122 -124 c68 -67 123 -126 123 -129z m-1233 -13 c1 -4 -66 -41 -150 -82 -83 -41 -158 -79 -165 -84 -8 -5 -44 -24 -80 -41 -37 -17 -78 -38 -92 -47 -58 -39 -71 -34 -120 42 -25 39 -50 78 -55 88 -6 9 -25 37 -43 62 l-33 45 28 25 c28 24 58 49 159 135 27 22 56 48 65 57 34 33 55 39 91 24 38 -15 80 -14 127 6 l34 14 116 -118 c64 -65 117 -122 118 -126z m2056 224 c45 -15 68 -15 121 3 l38 13 80 -78 c44 -44 100 -98 123 -121 l43 -42 -64 -31 c-35 -17 -151 -73 -257 -124 -293 -142 -282 -138 -314 -125 -15 6 -37 12 -47 15 -21 4 -83 22 -106 31 -8 4 -17 7 -20 8 -3 1 -20 6 -38 10 -18 4 -35 11 -38 16 -5 8 423 438 436 439 3 0 22 -6 43 -14z m970 -68 c-45 -46 -134 -136 -198 -201 l-117 -118 -71 71 c-67 67 -71 72 -52 83 11 6 22 12 25 12 9 2 424 205 450 220 52 30 42 12 -37 -67z m-4685 60 c13 -17 242 -427 242 -435 0 -4 -76 -138 -110 -193 -50 -80 -110 -183 -110 -188 -1 -18 -29 -42 -42 -37 -13 5 -15 63 -16 428 0 232 2 425 5 430 6 11 19 9 31 -5z m696 -12 c22 -23 136 -195 136 -204 0 -5 -33 -36 -72 -70 -40 -33 -86 -72 -103 -86 -31 -27 -41 -31 -47 -18 -1 4 -19 20 -38 35 -19 16 -58 49 -86 74 l-51 45 70 118 70 118 56 0 c30 0 60 -6 65 -12z m-535 -66 c46 -42 155 -136 172 -148 10 -7 19 -17 19 -22 0 -12 -64 -120 -71 -120 -3 0 -14 17 -25 38 -11 20 -33 60 -48 87 -16 28 -44 79 -64 115 -19 36 -38 70 -42 75 -4 6 -10 19 -14 30 -6 16 0 14 25 -10 18 -17 40 -37 48 -45z m1945 -56 c31 -10 55 -21 54 -26 -2 -4 -54 -59 -117 -122 l-114 -115 -80 81 c-44 45 -76 83 -71 85 5 2 59 30 119 62 116 63 120 63 209 35z m188 -58 c24 -8 97 -31 163 -51 66 -20 144 -45 173 -54 l54 -17 -54 -24 c-29 -14 -55 -27 -58 -30 -7 -8 -164 -82 -169 -80 -2 1 -7 -2 -10 -7 -8 -11 -250 -133 -265 -133 -6 0 -43 33 -83 73 l-72 73 130 132 c72 73 134 132 139 132 5 0 29 -6 52 -14z m720 -130 c15 -16 27 -31 25 -33 -5 -4 -187 51 -186 57 0 3 19 15 42 26 l42 21 24 -21 c13 -11 37 -34 53 -50z m-2057 -71 c37 -55 74 -107 82 -116 12 -14 11 -18 -9 -31 -32 -21 -146 -78 -155 -78 -4 0 -29 19 -54 43 -26 23 -70 62 -99 87 l-52 45 40 35 c22 19 61 53 87 75 27 22 53 45 59 52 14 15 18 11 101 -112z m843 42 c45 -46 82 -86 82 -89 0 -3 -98 -106 -219 -228 l-219 -221 -33 14 c-19 7 -39 12 -46 10 -6 -2 -47 48 -90 113 -43 64 -84 122 -90 129 -7 8 -13 17 -13 21 0 4 -8 16 -17 27 -10 11 -14 22 -8 24 6 2 132 66 280 143 149 76 275 139 280 139 6 1 47 -36 93 -82z m2450 6 l79 -77 -128 -129 c-108 -110 -130 -128 -149 -122 -12 4 -28 8 -34 9 -6 1 -33 9 -61 18 -27 9 -116 38 -197 63 -82 25 -148 48 -148 50 0 3 44 25 280 137 80 38 170 82 200 98 30 16 61 30 68 30 7 0 47 -35 90 -77z m-3787 4 c25 -23 61 -55 80 -70 l34 -28 -25 -20 c-44 -36 -112 -94 -131 -111 -18 -17 -19 -17 -32 5 -29 46 -67 120 -67 129 0 17 75 138 85 138 6 0 31 -19 56 -43z m2414 -32 c6 -1 17 -5 25 -8 8 -3 49 -16 90 -28 127 -37 129 -22 -32 -180 -79 -77 -183 -179 -231 -227 -59 -59 -90 -83 -95 -75 -24 38 -143 55 -196 28 -29 -15 -29 -15 -90 42 -34 32 -87 86 -119 120 l-59 61 209 104 c114 56 210 105 213 108 3 3 43 24 90 46 l85 41 50 -15 c28 -8 55 -15 60 -17z m1614 -209 c64 -63 165 -162 224 -220 59 -58 102 -106 96 -106 -7 0 -38 9 -68 19 -85 29 -230 73 -233 70 -2 -1 -13 3 -26 10 -13 7 -33 14 -45 16 -11 3 -78 23 -148 45 -69 22 -131 40 -138 40 -6 0 -11 2 -11 5 0 5 224 235 229 235 2 0 56 -51 120 -114z m-1262 42 c35 -34 63 -66 63 -69 0 -4 -42 -28 -92 -52 -216 -105 -429 -207 -432 -207 -2 0 80 82 182 183 101 100 190 187 196 194 6 7 13 12 16 13 2 0 33 -28 67 -62z m-2549 10 c25 -24 66 -61 90 -83 l43 -40 -146 -74 c-80 -41 -147 -72 -149 -70 -1 2 -22 38 -45 78 l-42 75 35 33 c19 18 37 33 40 33 5 0 31 23 91 80 18 17 36 10 83 -32z m1318 -23 c35 -36 64 -67 64 -70 0 -4 -377 -197 -390 -200 -3 0 -16 -7 -30 -15 -34 -19 -114 -60 -118 -60 -1 0 88 92 199 205 112 113 205 205 207 205 2 0 33 -29 68 -65z m1427 6 c4 -4 -10 -13 -31 -20 -38 -13 -40 -13 -76 23 -20 20 -36 38 -36 40 0 6 134 -35 143 -43z m-3105 -20 l32 -59 -68 -57 c-37 -31 -76 -64 -87 -73 -71 -62 -138 -115 -133 -107 7 13 96 165 108 185 5 8 30 50 56 93 25 42 49 77 53 77 4 0 21 -27 39 -59z m3328 -45 c60 -19 169 -53 243 -76 l133 -42 -72 -73 -72 -73 -34 14 c-46 19 -113 17 -156 -5 l-37 -18 -125 127 -124 127 51 26 c29 14 59 26 68 26 9 1 66 -14 125 -33z m-2538 -6 c12 -16 22 -34 22 -40 0 -5 4 -10 8 -10 4 0 21 -22 37 -50 16 -27 33 -50 37 -50 4 0 8 -5 8 -11 0 -6 11 -25 25 -43 32 -43 32 -50 -8 -74 l-34 -19 -61 56 c-33 31 -82 74 -108 96 -79 67 -107 95 -102 101 11 10 133 74 144 74 5 0 20 -13 32 -30z m2369 -176 c126 -127 134 -138 124 -160 l-11 -24 -445 0 c-245 0 -445 3 -445 5 0 2 33 20 73 39 181 86 533 257 547 265 8 6 17 10 18 10 2 1 65 -60 139 -135z m-1242 -1 c69 -70 123 -132 120 -138 -3 -5 -8 -18 -11 -28 -6 -16 -22 -18 -158 -18 -83 0 -160 0 -171 0 -11 0 -130 0 -265 1 l-245 1 125 63 c69 35 204 104 300 154 96 50 176 91 177 91 1 1 58 -56 128 -126z m-1811 36 c21 -38 36 -72 35 -73 -2 -2 -83 -43 -181 -93 l-176 -89 -12 39 c-9 32 -9 42 2 52 7 6 42 36 78 66 35 30 70 59 76 64 6 6 30 26 54 45 24 19 48 40 54 47 20 23 32 13 70 -58z m458 49 c7 -7 67 -60 133 -117 158 -138 158 -137 149 -163 -3 -12 -6 -42 -5 -68 0 -43 -2 -48 -56 -95 -31 -28 -71 -63 -88 -80 -84 -78 -158 -140 -167 -140 -5 0 -21 20 -35 45 -14 25 -71 126 -126 225 -55 99 -108 195 -118 212 -18 32 -18 33 4 47 12 8 58 32 102 53 44 21 82 40 85 44 6 6 92 48 102 49 4 0 13 -6 20 -12z m3428 -108 c74 -24 140 -43 145 -44 6 -1 24 -7 40 -13 17 -6 91 -30 165 -53 74 -23 140 -43 145 -45 8 -3 -447 -8 -550 -6 -11 0 -49 1 -85 0 -36 0 -72 0 -80 0 -8 1 -42 1 -76 1 -38 -1 -65 4 -71 12 -27 35 -21 47 62 131 l84 85 43 -13 c24 -7 104 -32 178 -55z m-3757 -171 c29 -53 58 -104 66 -113 7 -9 10 -16 6 -16 -5 0 -1 -8 7 -17 9 -10 33 -49 53 -88 20 -38 54 -100 75 -137 l38 -67 -58 -51 c-32 -28 -83 -73 -112 -100 -29 -27 -57 -50 -62 -50 -5 0 -70 60 -145 134 -75 74 -184 181 -243 239 -60 57 -108 111 -108 119 0 9 8 25 18 36 19 22 391 214 405 209 5 -1 32 -46 60 -98z m692 -211 c20 -17 20 -25 19 -470 -1 -249 -2 -455 -3 -458 -1 -3 -7 6 -14 20 -47 89 -114 210 -210 380 -61 107 -122 217 -136 243 l-26 48 25 21 c14 11 50 43 81 72 55 51 85 77 168 149 46 40 41 41 96 -5z m-1225 -78 c13 -25 35 -66 49 -92 14 -25 38 -68 53 -96 48 -88 90 -166 119 -219 16 -29 42 -77 58 -107 l30 -54 -28 -24 c-16 -12 -64 -55 -107 -94 -44 -39 -96 -86 -116 -103 l-37 -33 -33 19 c-18 10 -35 19 -38 21 -6 5 -9 844 -3 855 6 10 20 -10 53 -73z m281 -183 l217 -212 -60 -55 c-33 -30 -66 -58 -73 -62 -13 -8 -22 7 -133 212 -19 36 -47 88 -62 115 -15 28 -44 82 -65 120 -21 39 -42 76 -48 83 -5 6 -6 12 -1 12 5 0 106 -96 225 -213z m559 -78 c15 -24 43 -75 64 -114 21 -38 42 -74 46 -80 4 -5 23 -39 42 -75 54 -100 167 -303 178 -320 6 -8 18 -30 27 -48 16 -31 16 -33 -3 -47 -10 -8 -22 -15 -26 -15 -3 0 -56 48 -116 108 -60 59 -189 185 -286 280 l-176 172 51 48 c29 26 75 68 103 94 28 26 55 46 61 44 5 -1 21 -22 35 -47z m3 -472 c241 -235 286 -284 281 -301 -4 -12 -8 -47 -8 -78 -1 -48 -5 -60 -24 -74 -19 -13 -101 -78 -162 -127 -8 -7 -34 -27 -57 -45 l-42 -33 -15 23 c-20 33 -166 298 -166 303 0 2 -13 26 -28 52 -16 26 -55 98 -86 158 -32 61 -62 115 -66 120 -4 6 -24 41 -44 78 -41 79 -40 83 29 142 26 22 57 48 68 58 11 9 23 14 26 11 3 -3 135 -132 294 -287z m-460 31 c24 -46 56 -103 69 -128 14 -25 42 -76 63 -115 21 -38 63 -117 95 -175 31 -58 74 -136 95 -175 20 -38 46 -84 57 -102 l19 -32 -83 -67 c-46 -36 -88 -68 -94 -71 -6 -2 -110 96 -230 218 -120 122 -240 243 -265 268 -42 42 -45 49 -37 76 8 29 5 86 -8 118 -6 16 25 46 190 191 32 28 64 56 70 63 6 7 12 12 13 13 0 0 21 -37 46 -82z m-91 -650 c227 -232 255 -264 240 -275 -9 -7 -21 -16 -27 -21 -112 -92 -128 -99 -143 -63 -7 15 -83 150 -102 181 -34 52 -230 403 -230 411 0 5 -5 9 -11 9 -5 0 -7 5 -4 10 3 6 9 10 12 10 4 0 123 -118 265 -262z m-254 86 c41 -71 83 -145 94 -164 11 -19 47 -82 80 -139 33 -57 74 -128 90 -159 l31 -55 -24 -19 c-13 -11 -33 -27 -44 -36 -11 -10 -49 -39 -85 -67 -36 -27 -67 -52 -70 -55 -3 -3 -24 -20 -47 -38 l-43 -33 -37 24 -38 24 0 427 c0 271 3 425 9 423 5 -2 43 -61 84 -133z m2212 116 c0 -3 -60 -29 -133 -59 -72 -30 -150 -62 -172 -72 -22 -10 -67 -29 -100 -42 l-60 -24 -158 80 c-150 75 -184 100 -159 116 12 7 782 9 782 1z m1320 3 c0 -5 -687 -343 -698 -343 -8 0 -19 6 -26 13 -21 20 -196 180 -223 203 l-25 21 36 47 c20 26 36 51 36 54 0 4 203 7 450 7 248 0 450 -1 450 -2z m-1241 -49 c-34 -41 -283 -284 -288 -282 -3 2 -46 23 -95 47 l-89 45 29 13 c79 34 125 54 184 79 76 31 79 32 185 77 44 19 82 35 84 36 2 0 -3 -6 -10 -15z m1284 -16 c4 -14 -11 -28 -298 -303 -97 -93 -184 -178 -193 -187 -14 -16 -19 -13 -66 31 -28 27 -71 67 -95 89 l-45 40 90 44 c49 23 91 46 92 51 2 4 9 7 15 7 7 0 118 54 247 119 129 66 238 120 242 120 3 1 8 -5 11 -11z m-2396 -47 c34 -17 104 -21 138 -7 29 12 32 11 68 -28 22 -23 59 -62 83 -88 24 -26 44 -51 44 -56 0 -8 -17 -17 -70 -37 -3 -1 -17 -7 -32 -13 -15 -6 -67 -27 -115 -47 -48 -20 -97 -40 -108 -45 -11 -5 -49 -21 -85 -36 -36 -14 -78 -32 -95 -39 -59 -26 -57 -27 -122 88 -33 61 -59 115 -56 121 3 9 107 94 212 174 13 9 35 27 49 39 26 21 28 21 47 4 11 -10 30 -24 42 -30z m1194 3 c17 -8 52 -16 79 -18 27 -2 55 -10 63 -17 7 -8 49 -46 93 -86 43 -40 97 -88 118 -108 23 -21 36 -39 30 -45 -5 -4 -80 -44 -166 -87 l-157 -78 -178 88 c-98 49 -180 91 -183 93 -4 4 260 274 268 274 2 0 17 -7 33 -16z m-711 -126 c0 -4 -9 -8 -19 -8 -11 0 -23 -4 -26 -10 -14 -22 -44 -7 -90 43 -26 28 -57 62 -68 74 -14 16 12 7 91 -34 62 -31 112 -60 112 -65z m1989 113 c11 -7 13 -92 15 -454 l1 -446 -34 -16 c-36 -17 -37 -17 -91 35 -27 26 -85 79 -229 209 -131 119 -191 177 -191 185 0 5 15 22 33 38 69 65 351 336 410 395 67 68 66 67 86 54z m-1712 -247 c22 -14 22 -15 -49 -83 l-72 -70 -30 33 c-157 168 -170 185 -133 186 7 1 29 9 50 19 l38 18 87 -45 c48 -24 97 -51 109 -58z m-1154 9 c7 -22 84 -162 99 -180 8 -10 -5 -20 -57 -43 -37 -16 -71 -30 -77 -30 -5 0 -41 32 -79 71 l-70 70 83 64 c46 36 86 65 89 65 4 0 9 -8 12 -17z m845 -50 c31 -34 77 -82 101 -108 l44 -47 -39 -39 c-22 -22 -124 -124 -227 -227 -156 -156 -193 -187 -218 -189 -17 -1 -42 -4 -55 -7 -14 -4 -24 -2 -24 4 0 6 -10 27 -23 48 -23 36 -44 75 -156 284 -50 93 -56 118 -27 118 7 0 26 6 42 14 16 8 101 44 189 80 88 37 178 74 200 84 21 9 39 15 40 13 0 -2 15 5 33 17 19 11 41 19 49 18 8 -1 40 -30 71 -63z m560 -85 c89 -45 162 -85 162 -88 0 -3 -72 -41 -161 -85 l-161 -80 -84 89 -85 90 78 78 c43 43 80 78 83 78 3 0 78 -37 168 -82z m712 -4 c30 -28 70 -65 89 -82 l34 -31 -79 -75 c-43 -42 -82 -76 -86 -76 -13 0 -348 172 -348 179 0 3 69 41 153 83 120 60 155 73 167 64 8 -6 39 -34 70 -62z m-2282 -78 l63 -64 -47 -21 c-25 -12 -48 -21 -50 -21 -2 0 -23 -8 -47 -19 -66 -29 -97 -41 -105 -41 -4 0 -19 20 -32 45 l-25 46 34 27 c18 15 57 46 85 69 28 24 53 43 56 43 3 0 33 -29 68 -64z m406 -229 c58 -107 106 -196 106 -199 0 -2 -62 58 -137 135 -76 77 -153 154 -172 171 l-34 30 59 28 c33 15 62 28 66 28 3 0 54 -87 112 -193z m936 31 c0 -4 -125 -69 -277 -144 -153 -76 -281 -139 -285 -141 -4 -2 -9 1 -12 6 -3 5 92 107 211 226 l218 217 73 -78 c39 -43 72 -82 72 -86z m506 143 c5 -5 79 -44 164 -87 85 -43 161 -82 168 -87 9 -7 -7 -28 -60 -79 -40 -39 -98 -95 -129 -125 l-56 -54 -40 21 c-49 25 -115 28 -166 7 l-38 -16 -57 61 c-31 34 -85 91 -119 127 -34 36 -60 67 -58 69 1 2 79 41 171 87 164 82 200 95 220 76z m673 -87 c31 -28 68 -62 82 -75 43 -39 207 -189 273 -251 33 -31 58 -59 54 -63 -3 -3 -146 65 -318 152 l-311 157 73 72 c40 40 77 69 82 66 6 -3 35 -29 65 -58z m-2791 -10 c22 -34 23 -36 5 -50 -10 -7 -23 -14 -28 -14 -11 0 -210 -84 -237 -100 -10 -6 -18 -7 -18 -3 1 8 240 201 250 202 3 1 15 -15 28 -35z m582 -166 l198 -203 -14 -27 c-17 -33 -19 -58 -10 -120 3 -27 3 -48 -2 -48 -4 0 -19 -9 -32 -19 -70 -55 -221 -163 -224 -160 -2 2 -56 96 -121 209 -65 113 -149 259 -187 324 -38 65 -70 123 -71 128 -1 6 37 27 86 48 48 21 87 35 87 32 0 -4 4 -2 8 4 6 10 55 31 75 33 5 1 98 -90 207 -201z m1113 39 c18 -18 63 -67 100 -108 37 -41 82 -88 99 -106 30 -31 30 -33 15 -56 l-16 -25 -391 1 c-383 0 -391 1 -402 21 -6 11 -7 22 -2 24 5 2 133 66 284 142 151 76 277 139 278 139 2 1 18 -14 35 -32z m-1525 -169 c60 -106 120 -211 133 -233 12 -22 30 -53 40 -70 10 -16 27 -47 38 -67 38 -69 46 -83 59 -99 11 -15 8 -21 -28 -45 -23 -16 -56 -40 -74 -54 -17 -14 -44 -34 -60 -44 -30 -19 -33 -17 -96 44 -5 5 -133 117 -189 166 -18 16 -47 41 -64 57 -16 15 -52 46 -79 70 -27 23 -66 57 -86 75 -21 18 -53 47 -73 64 -36 29 -36 31 -22 60 9 16 17 51 18 76 l3 47 168 72 c93 39 176 72 185 72 11 1 53 -63 127 -191z m2527 95 c88 -45 211 -108 274 -140 63 -32 116 -63 118 -69 2 -7 -123 -11 -416 -11 -405 -1 -421 0 -426 18 -5 14 5 31 38 62 25 23 88 84 142 135 53 51 100 92 103 90 4 -2 79 -40 167 -85z m420 -213 c3 -5 1 -10 -4 -10 -6 0 -11 5 -11 10 0 6 2 10 4 10 3 0 8 -4 11 -10z m-3473 -60 c7 -11 18 -20 25 -20 6 0 13 -4 15 -8 2 -4 80 -75 173 -157 94 -82 175 -154 181 -160 10 -9 84 -73 142 -124 l24 -20 -97 -71 c-53 -40 -101 -70 -108 -67 -9 4 -201 325 -307 515 -8 15 -30 51 -47 80 -18 28 -28 52 -23 52 5 0 15 -9 22 -20z m-11 -131 c35 -61 75 -130 88 -153 13 -22 49 -84 80 -136 104 -176 147 -258 140 -262 -2 -2 -23 -18 -46 -36 -23 -17 -45 -32 -48 -32 -4 0 -12 -6 -19 -12 -7 -7 -24 -21 -37 -31 -13 -9 -53 -38 -88 -64 -53 -39 -65 -44 -75 -32 -6 8 -23 20 -38 26 -16 7 -28 16 -29 20 -4 33 -3 823 2 823 3 0 34 -50 70 -111z m1188 -13 c7 -8 22 -17 34 -20 l22 -5 0 -333 c0 -183 -4 -339 -8 -345 -22 -35 -40 -8 -269 397 -11 19 -32 55 -46 79 -28 48 -31 40 31 85 12 9 64 47 116 86 52 38 98 70 102 70 3 0 12 -6 18 -14z m-325 -251 c6 -11 23 -39 39 -62 15 -23 27 -44 27 -46 0 -2 48 -87 106 -188 131 -228 126 -219 116 -219 -5 0 -22 12 -40 28 -17 15 -41 36 -54 46 -13 11 -61 54 -109 95 -78 70 -169 150 -249 219 l-32 28 84 62 c45 33 87 60 92 58 5 -1 14 -11 20 -21z m-208 -170 c6 -5 35 -30 64 -55 29 -25 60 -52 69 -60 9 -9 52 -47 96 -85 44 -39 85 -74 91 -80 6 -5 40 -36 76 -68 65 -57 66 -59 63 -104 -3 -43 -9 -52 -68 -107 -111 -106 -248 -231 -255 -233 -6 -2 -59 84 -163 266 -15 25 -72 125 -128 221 l-102 174 28 22 c15 13 64 50 108 83 82 61 82 61 121 26z m-150 -435 c81 -140 152 -264 158 -275 7 -11 23 -38 37 -60 43 -67 43 -72 -1 -111 -22 -20 -59 -54 -81 -75 -23 -22 -45 -39 -50 -39 -8 0 -30 18 -94 75 -36 32 -84 75 -170 150 -44 38 -85 74 -91 80 -6 5 -42 37 -79 70 -99 87 -96 82 -85 111 6 14 8 49 5 77 -5 51 -5 52 32 77 20 14 87 62 147 107 61 45 114 79 117 75 4 -4 73 -122 155 -262z m650 -145 c14 -13 10 -23 -30 -90 -25 -42 -46 -80 -46 -85 0 -6 -3 -10 -8 -10 -4 0 -13 -15 -21 -32 -8 -18 -18 -35 -21 -38 -4 -3 -18 -25 -30 -50 -12 -25 -25 -47 -29 -50 -3 -3 -15 -22 -25 -42 -11 -21 -22 -38 -25 -38 -6 0 -58 83 -86 137 -13 25 -12 29 14 52 16 15 70 64 121 111 191 176 164 157 186 135z m-1030 -114 c28 -25 79 -71 115 -101 35 -30 76 -66 91 -80 15 -14 50 -45 79 -70 29 -25 66 -57 83 -72 l30 -27 -25 -21 c-13 -12 -50 -46 -82 -76 -48 -46 -60 -54 -72 -44 -8 7 -15 16 -15 21 0 5 -18 38 -40 74 -22 36 -40 67 -40 70 0 2 -14 28 -31 57 -35 58 -39 65 -128 223 -35 61 -67 114 -72 120 -5 5 -9 13 -9 18 0 10 36 -19 116 -92z m-60 -126 c53 -93 105 -184 115 -202 10 -17 29 -50 43 -72 15 -22 26 -43 26 -45 0 -3 13 -27 29 -55 l29 -49 -91 -83 c-49 -46 -100 -93 -111 -104 -12 -12 -40 -38 -63 -59 l-43 -38 -37 18 -38 19 0 425 c0 272 4 428 10 432 16 11 27 -5 131 -187z m1179 -241 c0 -366 -2 -426 -15 -434 -26 -17 -34 -11 -69 53 -19 34 -61 106 -93 160 -32 53 -58 100 -58 103 0 3 -8 18 -19 32 -39 57 -38 60 75 254 59 101 118 202 131 225 47 81 49 65 48 -393z m-435 101 c0 -3 16 -30 37 -62 l36 -57 -34 -64 c-19 -35 -36 -65 -39 -67 -3 -2 -30 20 -61 48 -31 29 -74 67 -95 85 l-39 33 79 74 80 74 18 -30 c10 -16 18 -32 18 -34z m-167 -189 c27 -25 66 -59 88 -77 21 -17 39 -36 39 -41 0 -20 -184 -328 -191 -321 -10 11 -175 297 -183 319 -5 14 13 37 81 100 98 91 90 90 166 20z m312 -58 c17 -29 44 -77 61 -108 17 -30 42 -73 55 -95 14 -22 29 -47 34 -55 10 -17 -28 14 -128 103 -37 33 -79 70 -94 83 -25 22 -26 25 -13 51 19 36 44 72 50 73 3 0 19 -24 35 -52z m-592 -135 c14 -21 45 -74 70 -118 24 -44 55 -98 67 -120 12 -22 28 -49 36 -59 11 -16 11 -24 -4 -50 -9 -17 -20 -33 -23 -36 -3 -3 -8 -10 -10 -16 -9 -23 -153 -264 -158 -264 -3 0 -22 15 -41 33 -19 17 -71 63 -115 102 -126 110 -144 128 -139 137 11 17 12 85 3 121 -9 33 -8 41 9 55 52 45 228 210 245 230 12 12 24 22 27 22 4 0 19 -17 33 -37z m513 -13 c22 -19 66 -57 98 -85 155 -133 158 -138 147 -168 -6 -16 -11 -37 -11 -48 0 -11 -28 -46 -66 -82 -37 -34 -106 -99 -153 -144 -47 -46 -90 -82 -95 -80 -11 4 -178 296 -174 306 12 33 204 348 208 343 3 -4 23 -23 46 -42z m-216 -507 c0 -3 8 -17 18 -31 10 -15 31 -48 46 -74 l27 -48 -93 -90 c-51 -49 -96 -90 -99 -90 -3 0 -28 20 -55 44 -27 24 -64 57 -81 73 l-33 28 39 65 c21 36 64 109 96 164 l57 98 39 -67 c22 -36 39 -69 39 -72z m554 33 l35 -16 1 -430 c1 -428 0 -430 -20 -430 -11 0 -23 7 -27 17 -5 13 -109 197 -142 253 -19 31 -226 393 -229 400 -3 7 73 83 215 217 l77 72 28 -33 c15 -18 43 -41 62 -50z m-1159 -12 c5 -6 41 -37 79 -70 39 -32 85 -74 104 -92 19 -18 43 -38 54 -46 19 -13 18 -16 -23 -90 -24 -42 -45 -76 -48 -76 -7 0 -144 229 -149 248 -2 6 -8 12 -13 12 -5 0 -9 5 -9 10 0 6 -16 36 -35 66 -29 45 -34 59 -24 70 12 15 27 7 64 -32z m-20 -189 c55 -91 111 -185 124 -209 l24 -44 -79 -137 c-43 -76 -89 -154 -101 -174 -13 -20 -32 -53 -43 -74 -12 -22 -24 -37 -26 -34 -7 6 -10 837 -4 837 3 0 50 -74 105 -165z m783 -102 c17 -32 46 -83 63 -113 17 -30 44 -76 60 -103 16 -26 29 -50 29 -53 0 -3 8 -18 18 -32 18 -26 61 -102 106 -187 12 -22 24 -42 27 -45 3 -3 12 -16 19 -29 l13 -24 -29 22 c-16 12 -47 39 -69 59 -22 20 -74 66 -115 102 -70 61 -115 100 -180 160 -15 14 -39 34 -52 45 -47 38 -98 84 -98 90 0 3 26 29 57 58 31 29 68 64 81 80 14 15 28 27 31 27 4 0 21 -26 39 -57z m-427 -6 c14 -12 47 -41 73 -64 l48 -42 -82 -78 c-45 -43 -86 -79 -90 -81 -8 -3 -80 108 -80 123 0 10 94 165 100 165 3 0 17 -10 31 -23z m201 -174 c18 -16 55 -49 83 -74 27 -25 127 -112 220 -194 94 -82 184 -162 200 -177 17 -15 33 -28 37 -28 4 0 1 -17 -6 -37 -12 -34 -7 -84 14 -149 0 -1 -55 -51 -122 -110 -68 -60 -136 -121 -152 -136 l-29 -28 -68 113 c-37 61 -74 123 -82 137 -8 14 -74 124 -147 245 -73 121 -141 235 -151 253 l-19 33 92 89 c51 49 94 90 96 90 1 0 17 -12 34 -27z m-333 -90 l30 -53 -87 -83 c-48 -46 -111 -107 -141 -136 -50 -48 -68 -61 -58 -43 76 133 102 178 106 182 4 3 20 31 36 62 17 32 33 58 38 58 4 0 7 5 7 10 0 12 31 62 35 58 2 -2 17 -27 34 -55z m120 -199 c28 -47 51 -89 51 -94 0 -5 4 -10 8 -12 10 -4 132 -207 132 -219 0 -5 5 -9 10 -9 6 0 10 -4 10 -9 0 -5 38 -71 85 -147 125 -204 121 -195 100 -210 -9 -7 -34 -28 -54 -46 -117 -106 -121 -109 -135 -96 -7 7 -37 33 -66 58 -29 25 -65 56 -80 70 -15 14 -56 50 -90 80 -34 30 -68 60 -74 65 -6 6 -47 41 -91 80 -154 135 -146 124 -132 173 9 33 8 53 -2 90 l-12 47 138 132 c76 73 141 133 144 133 4 0 30 -39 58 -86z m-335 -446 c20 -18 48 -44 63 -57 16 -13 44 -37 63 -55 19 -17 69 -60 110 -96 41 -36 80 -69 86 -75 36 -33 159 -142 173 -152 14 -11 11 -18 -30 -55 -97 -90 -141 -128 -147 -127 -4 0 -65 81 -137 181 -71 100 -136 187 -142 194 -7 7 -13 15 -13 18 0 3 -31 47 -70 98 -38 51 -70 99 -70 106 0 11 56 52 71 52 4 0 23 -15 43 -32z m1208 -411 c2 -228 2 -421 0 -430 -5 -23 -17 -21 -30 6 -6 12 -22 39 -34 59 -13 21 -65 107 -116 192 l-94 155 47 83 c27 46 60 104 74 129 103 182 126 219 138 219 10 0 13 -82 15 -413z m-154 316 c-28 -49 -75 -130 -105 -181 l-55 -94 -15 28 c-8 16 -23 43 -34 60 l-19 31 93 84 c50 46 110 101 132 121 22 21 43 38 47 38 4 0 -16 -39 -44 -87z m-1125 -98 c8 -10 64 -87 99 -136 9 -13 46 -64 82 -112 36 -49 66 -93 66 -97 0 -5 3 -10 8 -12 12 -5 82 -104 82 -116 0 -6 -6 -15 -14 -19 -13 -7 -102 -87 -219 -194 l-50 -46 -48 31 -48 31 0 365 c-1 347 0 363 16 340 10 -14 21 -29 26 -35z m866 -125 c4 -3 12 -16 19 -30 7 -14 21 -39 33 -56 16 -26 17 -34 7 -45 -7 -8 -21 -30 -31 -49 -37 -73 -48 -90 -57 -90 -7 0 -38 26 -138 118 l-25 22 39 34 c21 18 62 54 89 79 30 28 52 42 54 34 2 -6 7 -14 10 -17z m-107 -290 l48 -45 -60 -106 -60 -106 -38 7 c-21 3 -49 5 -63 3 -22 -3 -35 9 -94 89 l-67 92 50 45 c27 25 73 67 101 93 l52 46 41 -36 c23 -20 64 -57 90 -82z m249 58 c17 -29 40 -66 49 -83 9 -16 49 -83 88 -147 44 -72 66 -118 59 -121 -9 -3 -111 77 -157 123 -12 12 -98 87 -128 112 l-33 28 32 57 c32 57 49 83 54 83 2 0 18 -24 36 -52z m-41 -239 c58 -50 114 -100 125 -110 11 -11 31 -28 44 -39 13 -11 21 -26 18 -33 -4 -12 -39 -14 -183 -13 l-177 1 -18 30 c-10 17 -22 35 -28 42 -10 11 -2 32 34 91 6 9 23 41 39 70 16 28 32 52 36 52 3 0 53 -41 110 -91z m-522 -15 c59 -80 60 -82 42 -101 -10 -11 -25 -33 -33 -50 l-16 -30 -175 0 c-97 0 -176 3 -176 6 0 3 11 15 23 26 46 39 171 151 216 192 25 23 49 41 52 40 4 -1 34 -39 67 -83z" transform="translate(0.000000,960.000000) scale(0.100000,-0.100000)"/></g></svg>