<?xml version="1.0" standalone="no"?>
<!DOCTYPE svg PUBLIC "-//W3C//DTD SVG 20010904//EN"
 "http://www.w3.org/TR/2001/REC-SVG-20010904/DTD/svg10.dtd">
<svg version="1.0" xmlns="http://www.w3.org/2000/svg"
 width="1280.000000pt" height="1280.000000pt" viewBox="0 0 1280.000000 1280.000000"
 preserveAspectRatio="xMidYMid meet">
<metadata>
Created by potrace 1.14, written by Peter Selinger 2001-2017
</metadata>
<g transform="translate(0.000000,1280.000000) scale(0.100000,-0.100000)"
fill="#000000" stroke="none">
<path d="M4158 10104 c-54 -34 -80 -77 -81 -132 0 -57 22 -102 68 -139 l34
-27 0 -376 1 -375 -32 -20 c-97 -61 -92 -215 7 -271 19 -11 20 -26 22 -390 l3
-379 -35 -22 c-90 -59 -90 -200 0 -262 l35 -24 1 -176 c0 -302 0 -525 0 -554
-1 -17 -8 -30 -18 -34 -32 -12 -62 -47 -76 -88 -23 -66 -10 -122 38 -165 15
-14 34 -32 44 -40 14 -13 16 -52 14 -375 -1 -198 -2 -365 -2 -372 -1 -6 -16
-20 -34 -31 -93 -54 -91 -210 2 -265 17 -10 31 -21 32 -25 1 -4 2 -171 3 -372
1 -315 -1 -366 -14 -378 -53 -45 -67 -61 -81 -92 -30 -66 -4 -151 59 -193 l37
-24 0 -372 1 -373 -38 -26 c-21 -15 -40 -35 -44 -44 -3 -10 -9 -18 -13 -18 -4
0 -8 -6 -9 -12 -9 -100 10 -155 64 -189 19 -11 35 -24 35 -27 1 -4 3 -173 4
-375 l2 -369 -39 -24 c-86 -55 -100 -183 -27 -251 74 -68 190 -54 247 31 l23
34 157 0 157 0 24 -38 c58 -93 204 -93 262 0 l24 38 155 1 155 0 26 -37 c55
-80 167 -96 239 -35 29 24 58 91 55 128 -3 52 -39 109 -89 140 -13 8 -17 30
-18 105 -2 52 1 101 5 108 5 6 5 12 0 12 -4 0 -8 119 -7 265 l0 265 34 25 c50
37 73 78 73 133 -1 56 -29 109 -73 135 -16 10 -31 21 -31 25 -1 4 -2 173 -3
376 -1 247 2 372 9 377 5 5 24 20 42 34 38 31 55 78 49 133 -8 59 -23 85 -65
112 l-38 23 -1 366 c-1 201 1 374 4 384 3 9 11 17 19 17 21 0 73 67 80 102 3
18 4 44 1 58 -2 14 -5 31 -5 37 -1 19 -71 93 -87 93 -12 0 -14 50 -14 293 0
254 5 329 21 316 7 -6 45 26 69 59 l24 32 348 0 c273 0 348 -3 348 -13 0 -20
50 -68 86 -83 75 -31 152 -5 199 69 l17 27 409 0 408 0 12 -22 c55 -108 215
-114 276 -11 50 85 24 183 -62 230 -18 11 -19 26 -20 407 0 344 2 397 15 401
43 15 83 73 94 135 13 81 -78 180 -160 174 -61 -4 -144 -56 -144 -90 0 -8 -3
-15 -7 -15 -5 -1 -197 -3 -428 -4 l-420 -1 -37 24 c-60 39 -130 37 -198 -8
-22 -15 -67 -17 -393 -16 l-368 1 -20 32 c-11 18 -35 41 -53 52 l-32 20 1 423
c0 412 0 423 20 433 47 24 73 48 91 80 10 19 21 35 24 36 3 0 162 1 354 2
l349 2 23 -37 c61 -96 205 -98 267 -3 12 19 27 35 32 36 6 0 184 1 398 2 304
2 387 -1 387 -10 0 -7 4 -13 9 -13 5 0 12 -8 15 -17 16 -49 123 -84 188 -61
27 9 81 63 90 88 3 10 96 13 401 14 l398 1 25 -38 c30 -46 97 -79 146 -74 113
13 177 119 133 223 -16 39 -28 52 -68 78 l-27 19 0 372 1 373 38 25 c71 47 91
136 46 212 -58 100 -204 104 -268 6 l-24 -37 -396 1 -396 0 -23 34 c-31 46
-79 73 -131 73 -59 1 -90 -14 -131 -64 l-37 -44 -392 1 -391 0 -12 22 c-34 69
-117 102 -193 76 -48 -16 -55 -22 -88 -68 l-21 -30 -364 1 c-199 1 -366 2
-370 3 -3 0 -15 16 -26 34 -21 36 -75 67 -125 71 -43 4 -98 -25 -136 -71 l-31
-38 -145 0 c-80 0 -145 3 -145 6 0 17 -55 71 -89 89 -66 33 -158 4 -200 -64
l-20 -32 -153 2 c-181 2 -168 1 -168 17 0 16 -45 59 -80 78 -41 21 -102 18
-142 -7z m550 -202 c2 -7 15 -26 28 -41 l24 -29 -53 -90 c-28 -50 -56 -91 -62
-92 -5 0 -44 30 -85 66 -41 37 -101 89 -132 117 -84 74 -71 82 133 81 103 0
144 -4 147 -12z m613 -15 c10 -24 9 -29 -17 -49 -15 -12 -39 -33 -53 -46 -14
-14 -41 -36 -60 -51 -19 -14 -49 -38 -65 -53 -17 -16 -34 -28 -38 -28 -4 0
-34 40 -67 89 l-60 89 25 33 c13 18 28 35 33 38 5 3 72 6 150 6 l141 0 11 -28z
m1011 22 c-14 -13 -217 -113 -224 -111 -5 1 -8 -2 -8 -8 0 -20 -58 -9 -210 40
-85 27 -170 53 -188 56 -18 3 -35 10 -38 15 -3 5 -9 7 -14 4 -5 -3 -11 -2 -13
2 -3 5 154 8 348 8 195 0 351 -3 347 -6z m1052 0 c3 -2 -106 -60 -240 -128
l-245 -124 -122 122 c-71 72 -116 125 -110 129 12 8 710 9 717 1z m1126 0 c0
-3 -55 -32 -122 -64 -68 -32 -186 -89 -262 -127 -77 -37 -146 -67 -153 -66
-19 4 -223 209 -223 224 0 37 17 39 393 39 202 0 367 -3 367 -6z m-1030 -36
c0 -5 -90 -97 -199 -205 l-199 -198 -63 65 c-70 72 -78 85 -55 85 9 0 16 5 16
10 0 6 3 9 8 8 7 -2 97 43 352 175 132 68 140 71 140 60z m-1159 -83 c-38 -38
-71 -70 -73 -70 -2 0 -23 6 -48 14 l-45 13 45 23 c25 13 72 38 105 56 33 17
66 32 73 33 7 0 -18 -30 -57 -69z m-561 15 c8 -2 44 -13 80 -25 36 -11 79 -23
95 -26 17 -3 32 -10 33 -15 2 -5 8 -7 13 -3 5 3 9 3 9 0 0 -3 -38 -24 -85 -48
l-86 -43 -94 95 c-52 52 -95 98 -95 102 0 4 26 -2 58 -13 31 -11 64 -22 72
-24z m1023 -207 l-57 -29 -65 22 c-36 12 -73 23 -81 24 -14 2 -23 5 -67 22
-10 3 -23 7 -29 8 -15 4 -158 49 -163 52 -2 1 24 29 56 63 53 53 63 59 84 51
36 -13 93 -7 130 16 l34 20 108 -110 108 -110 -58 -29z m1851 231 l36 -21 2
-370 3 -369 -33 -26 -33 -25 -107 105 c-59 58 -153 150 -209 205 -57 56 -103
104 -103 108 0 4 87 94 193 201 105 107 194 198 195 203 5 15 17 12 56 -11z
m-2945 -249 c-41 -19 -80 -41 -87 -47 -12 -12 -21 -15 -38 -12 -4 0 -10 -3
-13 -9 -6 -9 -273 -144 -276 -140 -1 2 -36 54 -78 116 -84 124 -82 111 -21
162 10 8 48 40 84 70 36 30 76 65 89 77 14 13 33 21 45 18 12 -2 21 -4 21 -5
0 -9 74 -6 103 4 l37 13 103 -106 104 -105 -73 -36z m1875 231 c6 -9 72 -7
116 4 22 5 39 -8 129 -97 l104 -102 -154 -74 c-85 -41 -202 -99 -261 -127
l-107 -53 -86 27 c-47 15 -88 31 -92 34 -3 4 -17 7 -29 7 -13 0 -26 4 -29 10
-3 5 76 93 177 194 173 174 215 206 232 177z m906 5 c0 -2 -74 -79 -165 -171
l-165 -167 -61 60 -61 60 139 66 c76 37 176 86 223 110 47 24 86 44 88 45 1 0
2 -1 2 -3z m-4154 -29 c23 -47 69 -132 77 -142 5 -5 34 -57 67 -115 53 -96 57
-107 44 -127 -15 -23 -42 -72 -83 -143 -13 -25 -27 -47 -30 -50 -3 -3 -17 -25
-30 -50 -37 -69 -68 -112 -74 -103 -2 4 -5 176 -5 381 0 375 3 412 34 349z
m657 -76 c62 -90 65 -96 48 -110 -10 -9 -40 -34 -66 -56 -26 -22 -59 -50 -73
-62 l-26 -22 -46 37 c-25 20 -61 52 -80 70 l-35 33 19 32 c10 18 27 46 37 64
60 105 64 109 111 109 l45 0 66 -95z m-517 14 c24 -22 119 -104 143 -122 14
-10 13 -16 -9 -58 -14 -26 -28 -49 -32 -51 -6 -4 -24 25 -85 136 -11 19 -35
62 -53 95 -31 55 -32 59 -9 40 13 -11 33 -29 45 -40z m1692 -40 l53 -17 -97
-99 c-54 -54 -101 -99 -105 -99 -10 0 -117 112 -120 125 -2 11 190 113 206
109 6 -1 34 -10 63 -19z m207 -65 c3 0 10 -2 17 -5 7 -2 60 -18 118 -35 58
-18 116 -37 130 -42 l25 -10 -33 -16 c-18 -10 -121 -62 -229 -117 -108 -55
-199 -101 -203 -103 -9 -3 -130 114 -130 126 0 5 49 59 110 120 l109 111 41
-14 c22 -8 42 -15 45 -15z m574 -84 l42 -43 -79 25 -80 25 31 18 c18 10 34 18
37 18 3 1 25 -19 49 -43z m-1049 -40 c38 -38 70 -72 70 -75 0 -11 -377 -391
-388 -391 -5 0 -12 3 -16 8 -8 7 -12 8 -39 11 -12 1 -52 54 -92 120 -5 9 -12
18 -15 21 -11 11 -50 70 -50 75 0 4 -7 13 -15 22 -9 8 -14 20 -12 27 3 9 478
258 484 253 1 -1 34 -33 73 -71z m2145 11 c36 -35 65 -67 65 -73 0 -5 -49 -57
-108 -115 l-107 -107 -198 62 -197 62 62 32 c76 38 412 201 415 202 2 0 32
-28 68 -63z m-2876 -57 c39 -57 67 -107 63 -111 -13 -13 -126 -69 -138 -69 -7
0 -14 3 -16 8 -1 4 -30 29 -63 57 -77 64 -85 72 -85 83 0 5 24 29 53 53 28 24
54 47 55 51 2 5 10 8 17 8 7 0 16 7 19 16 3 9 10 14 15 12 6 -2 42 -50 80
-108z m-420 39 c31 -29 59 -57 63 -64 5 -7 -19 -33 -63 -69 -39 -32 -71 -57
-73 -55 -1 2 -17 29 -34 60 -29 53 -34 99 -11 99 5 0 9 5 9 11 0 12 38 69 47
69 3 0 31 -23 62 -51z m2046 1 c14 -5 40 -12 58 -15 17 -4 34 -9 37 -13 3 -4
14 -8 25 -10 23 -4 104 -30 117 -38 4 -3 -81 -92 -190 -199 -189 -186 -198
-194 -219 -180 -39 26 -95 33 -143 19 l-45 -13 -97 99 c-54 55 -98 101 -98
103 0 2 44 25 98 51 53 26 167 83 252 127 85 43 160 78 167 79 6 0 23 -4 38
-10z m1553 -281 c99 -97 182 -181 186 -187 3 -6 -17 -2 -44 8 -28 10 -54 19
-58 20 -17 2 -87 23 -169 49 -48 16 -122 39 -163 51 -41 12 -82 25 -90 28 -8
3 -18 6 -22 6 -5 1 -9 5 -10 10 -2 11 174 196 184 193 3 -1 87 -81 186 -178z
m-3368 74 c19 -18 38 -33 43 -33 23 0 0 -22 -50 -47 -32 -15 -61 -32 -64 -36
-3 -5 -9 -8 -13 -8 -3 1 -29 -10 -57 -24 -52 -25 -69 -25 -69 0 0 7 -3 15 -7
17 -5 2 -18 22 -30 46 l-22 44 23 21 c13 12 41 36 62 52 21 17 47 37 58 46 22
18 28 15 126 -78z m2176 45 c29 -28 51 -55 48 -60 -7 -11 -136 -72 -146 -70
-5 1 -8 -2 -8 -8 0 -5 -5 -10 -11 -10 -5 0 -64 -27 -130 -59 -65 -33 -119 -56
-119 -53 0 7 302 312 309 312 2 0 28 -23 57 -52z m-1080 -10 c56 -53 63 -64
42 -70 -7 -2 -92 -43 -188 -93 -96 -49 -177 -89 -180 -90 -3 0 -21 -9 -40 -19
-24 -12 20 38 135 153 93 94 171 171 173 171 2 0 28 -23 58 -52z m1204 22 c41
-11 43 -13 25 -26 -25 -19 -30 -18 -59 10 -24 21 -36 43 -18 33 4 -3 27 -10
52 -17z m-2675 -36 l27 -46 -25 -22 c-14 -11 -36 -30 -49 -40 -12 -10 -52 -44
-87 -74 -35 -31 -62 -49 -60 -41 6 23 152 269 160 269 4 0 19 -21 34 -46z
m2935 -44 c58 -17 112 -35 120 -38 8 -3 17 -6 20 -7 20 -6 96 -29 103 -31 4
-1 9 -3 12 -4 6 -3 22 -7 35 -9 19 -2 10 -17 -46 -74 -46 -47 -60 -56 -80 -51
-13 3 -26 10 -29 14 -7 11 -85 1 -115 -15 -25 -13 -28 -11 -128 90 -56 56
-102 107 -102 112 0 11 81 53 95 49 6 -2 57 -18 115 -36z m-2176 -98 c42 -62
76 -116 76 -121 0 -4 -12 -13 -26 -20 -29 -13 -28 -13 -154 99 -36 32 -76 67
-90 78 -14 11 -23 22 -20 25 16 15 126 64 131 59 4 -4 41 -58 83 -120z m2016
-61 c93 -94 114 -121 106 -133 -16 -20 -746 -21 -746 -1 0 7 4 13 10 13 9 0
171 77 414 196 50 24 92 44 94 44 3 0 57 -53 122 -119z m-1089 0 c154 -155
170 -146 -265 -147 -190 0 -346 1 -346 3 0 4 59 34 62 31 2 -1 22 11 45 25 24
15 47 27 53 27 6 0 22 7 35 16 32 21 288 152 299 153 5 1 57 -48 117 -108z
m-1593 40 c17 -33 29 -62 25 -64 -5 -3 -74 -39 -156 -81 l-147 -76 -10 26 c-6
14 -10 27 -10 30 0 6 39 44 45 44 3 0 13 8 23 18 10 9 42 37 72 62 30 25 68
57 85 72 16 15 32 27 35 28 3 0 20 -27 38 -59z m421 22 c16 -16 50 -47 77 -69
27 -23 67 -58 88 -78 22 -19 44 -37 50 -39 14 -5 16 -129 2 -143 -6 -5 -58
-52 -116 -104 -58 -52 -114 -102 -124 -112 -10 -9 -23 -15 -27 -13 -4 3 -29
44 -56 92 -26 48 -56 101 -65 118 -9 16 -20 36 -24 44 -4 7 -29 52 -56 98 -26
46 -46 89 -43 94 6 9 60 40 70 39 3 0 11 4 18 10 14 13 158 88 170 89 5 1 21
-11 36 -26z m2881 -44 c8 -4 62 -22 120 -39 58 -17 110 -33 115 -34 6 -2 12
-4 15 -4 3 0 28 -9 55 -20 28 -11 55 -20 60 -21 19 -2 120 -34 128 -41 4 -4
-152 -7 -348 -7 -343 0 -356 1 -367 20 -8 16 -2 27 39 69 26 28 57 61 68 73
17 20 27 23 60 18 21 -3 46 -9 55 -14z m-3190 -182 c25 -45 46 -88 48 -94 2
-7 8 -13 13 -13 6 0 7 -4 4 -10 -3 -5 -2 -10 3 -10 5 0 14 -12 21 -27 7 -16
24 -48 39 -73 15 -25 27 -47 27 -50 0 -3 14 -27 29 -54 l29 -49 -59 -54 c-32
-30 -76 -70 -96 -89 -21 -19 -40 -34 -43 -34 -3 0 -103 96 -221 213 -199 196
-216 215 -205 235 7 13 66 48 149 89 75 37 139 71 140 75 2 5 12 8 22 8 10 0
22 5 25 10 14 23 32 5 75 -73z m1920 23 c0 -5 -5 -10 -11 -10 -5 0 -7 5 -4 10
3 6 8 10 11 10 2 0 4 -4 4 -10z m-1301 -608 c0 -308 -3 -391 -12 -372 -6 14
-14 27 -17 30 -3 3 -44 75 -92 160 -47 85 -94 171 -105 190 -73 129 -104 190
-96 190 4 0 31 22 58 48 28 26 82 74 120 107 39 33 74 65 78 73 6 10 15 8 38
-8 l29 -21 -1 -397z m-1045 253 c20 -38 47 -88 60 -110 12 -22 42 -76 65 -120
24 -44 57 -104 74 -134 l29 -54 -36 -33 c-21 -19 -39 -34 -41 -34 -2 0 -27
-23 -57 -51 -92 -88 -121 -108 -135 -94 -7 7 -18 15 -25 17 -10 4 -13 79 -14
369 -1 200 1 368 4 373 3 5 12 -6 22 -25 9 -19 33 -65 54 -104z m226 -105
l168 -165 -34 -30 c-20 -16 -47 -40 -61 -53 l-26 -22 -26 52 c-14 29 -29 55
-33 56 -5 2 -8 7 -8 11 0 4 -43 85 -95 180 -52 96 -85 165 -74 155 11 -10 96
-93 189 -184z m480 -65 c0 -3 18 -34 40 -70 22 -36 40 -72 40 -79 0 -8 4 -16
8 -18 8 -3 41 -62 203 -353 27 -49 27 -51 9 -63 -17 -10 -37 7 -182 149 -90
88 -203 198 -251 246 l-89 86 44 39 c23 22 65 59 92 83 l50 44 18 -30 c10 -16
18 -32 18 -34z m-15 -390 l250 -245 0 -67 1 -66 -124 -99 c-114 -91 -125 -98
-137 -81 -16 24 -100 177 -128 233 -12 25 -24 47 -27 50 -3 3 -11 16 -17 30
-7 14 -27 52 -46 85 -18 33 -51 92 -72 130 -20 39 -49 90 -62 114 l-25 44 63
58 c35 32 66 58 69 59 3 0 118 -110 255 -245z m-389 7 c21 -37 39 -73 40 -80
2 -8 9 -21 17 -30 8 -10 34 -55 58 -102 24 -47 47 -86 52 -88 4 -2 7 -12 7
-23 0 -10 5 -19 10 -19 6 0 10 -4 10 -9 0 -5 17 -40 38 -78 70 -123 102 -184
102 -192 0 -5 -34 -34 -76 -66 l-76 -59 -229 234 -229 234 4 46 c2 25 -1 56
-6 70 -10 26 -8 29 142 160 35 30 68 60 74 66 15 17 20 12 62 -64z m-212 -430
c372 -381 349 -355 329 -369 -10 -8 -28 -23 -41 -33 -12 -11 -24 -20 -27 -20
-3 0 -15 -10 -26 -21 l-22 -22 -18 24 c-10 13 -19 27 -19 31 0 9 -94 172 -121
210 -10 15 -19 34 -19 42 0 8 -4 16 -8 18 -5 2 -22 28 -39 58 -48 87 -75 134
-83 145 -4 6 -10 19 -14 29 -9 25 2 16 108 -92z m-84 -74 c41 -72 89 -157 107
-189 17 -31 54 -96 82 -143 42 -71 49 -90 41 -106 -6 -11 -14 -20 -18 -20 -5
0 -17 -8 -28 -18 -10 -9 -61 -50 -112 -91 l-93 -74 -32 15 -32 15 0 372 c-1
204 2 371 5 371 3 0 39 -59 80 -132z m1953 123 c5 -1 7 -7 4 -13 -2 -7 -1 -23
4 -35 7 -20 2 -24 -61 -48 -38 -15 -72 -27 -74 -27 -3 0 -54 -19 -113 -42
l-108 -43 -182 91 c-100 50 -182 96 -183 103 0 6 12 13 28 15 23 3 662 2 685
-1z m1107 -1 c0 -3 -42 -25 -93 -50 -50 -25 -93 -48 -95 -52 -2 -5 -9 -8 -15
-8 -7 0 -92 -41 -191 -90 -98 -50 -184 -90 -190 -90 -11 1 -53 36 -164 141
l-62 60 16 30 c8 17 13 33 10 37 -24 23 33 27 398 27 212 0 386 -2 386 -5z
m-2025 -101 c5 -1 24 -2 40 -4 17 -2 45 0 63 5 36 9 20 23 170 -140 28 -30 50
-55 49 -56 -1 -1 -110 -43 -242 -92 -132 -50 -247 -93 -256 -97 -12 -5 -24 7
-46 47 -17 29 -31 58 -33 63 -1 6 -10 21 -19 35 -9 14 -23 38 -31 54 -14 28
-14 30 15 53 17 12 75 59 129 102 l99 79 26 -24 c14 -13 30 -24 36 -25z m2085
43 c0 -4 -66 -70 -146 -147 -80 -77 -177 -170 -214 -207 -38 -38 -74 -68 -79
-68 -6 0 -34 22 -63 49 -30 27 -64 59 -76 69 l-23 20 288 145 c280 141 313
155 313 139z m76 -438 l-1 -396 -24 -13 c-26 -13 -21 -17 -130 85 -14 14 -71
66 -125 115 -54 50 -119 110 -144 133 l-46 44 105 100 c57 55 157 151 222 214
66 63 124 114 131 114 9 0 12 -92 12 -396z m-1698 250 c-59 -30 -74 -27 -120
23 -24 25 -51 53 -61 62 -55 48 -26 44 84 -12 111 -57 118 -62 97 -73z m610
84 c22 0 54 5 72 12 30 12 33 11 68 -22 20 -20 66 -62 101 -95 l64 -60 -146
-72 c-136 -67 -167 -75 -187 -52 -5 6 -58 33 -70 36 -3 0 -25 12 -50 25 -25
13 -66 35 -92 48 -27 13 -48 28 -48 33 0 6 41 50 91 100 l91 90 33 -21 c18
-11 51 -21 73 -22z m-305 -68 l-52 -50 -35 17 c-41 19 -39 23 12 40 20 6 55
18 77 27 22 8 42 15 44 16 3 0 -18 -23 -46 -50z m-104 -96 c5 -5 -80 -93 -102
-105 -15 -8 -24 -5 -44 18 -14 15 -39 42 -55 59 l-30 32 64 24 63 25 50 -25
c28 -13 52 -26 54 -28z m-965 -97 c26 -49 46 -90 44 -91 -2 -2 -27 -11 -56
-22 l-52 -18 -70 69 c-39 38 -70 72 -70 76 0 4 30 30 66 58 77 59 64 66 138
-72z m689 60 c7 -7 36 -39 66 -70 l54 -56 -198 -199 c-178 -179 -201 -199
-233 -200 -19 -1 -37 -4 -40 -7 -7 -7 -21 15 -77 120 -27 50 -66 121 -87 159
-21 38 -37 70 -36 71 9 7 515 194 526 194 7 1 19 -5 25 -12z m487 -69 c133
-66 142 -72 120 -82 -14 -6 -31 -16 -38 -23 -8 -7 -17 -11 -22 -8 -5 3 -10 2
-12 -2 -3 -9 -173 -93 -186 -93 -8 0 -69 63 -125 127 -18 21 -17 22 45 86 35
36 65 66 68 66 3 1 70 -31 150 -71z m571 42 c13 -11 54 -48 90 -81 l66 -61
-68 -64 c-38 -35 -71 -64 -74 -64 -3 0 -73 35 -155 77 l-150 77 133 67 c72 37
132 68 133 68 1 1 12 -8 25 -19z m-1940 -125 c60 -58 64 -65 45 -71 -11 -3
-34 -12 -51 -19 -45 -20 -145 -55 -155 -55 -5 0 -12 10 -16 23 -4 12 -10 24
-14 27 -4 3 -10 15 -14 27 -6 18 4 31 61 77 37 30 70 55 73 55 3 1 35 -28 71
-64z m1108 -92 l64 -66 -109 -56 c-60 -30 -115 -56 -122 -57 -7 -1 -19 -7 -26
-13 -21 -17 -238 -122 -243 -117 -5 4 357 374 367 375 3 1 34 -29 69 -66z
m516 46 c6 -4 73 -39 149 -77 l139 -70 -34 -32 c-19 -18 -68 -66 -110 -106
-42 -41 -81 -74 -86 -74 -5 0 -24 7 -42 16 -40 20 -91 20 -130 1 l-30 -15 -98
106 c-54 58 -98 109 -98 114 0 5 65 43 145 83 139 71 166 78 195 54z m-1317
-72 c19 -34 46 -84 60 -112 14 -27 34 -61 44 -74 49 -65 5 -31 -108 84 -111
113 -130 138 -106 141 4 0 14 3 22 7 20 7 44 15 50 16 3 1 20 -27 38 -62z
m1876 21 c14 -17 26 -29 26 -26 0 3 26 -20 59 -51 32 -31 96 -90 141 -131 121
-110 150 -138 150 -144 0 -4 -526 259 -538 269 -6 5 111 115 123 115 7 0 24
-14 39 -32z m-2425 -34 c12 -19 21 -37 21 -39 0 -3 -51 -22 -80 -31 -3 0 -21
-7 -40 -15 -19 -7 -38 -12 -42 -11 -5 1 -8 -3 -8 -9 0 -5 -4 -8 -8 -5 -4 2
-28 -4 -52 -15 l-45 -19 26 22 c14 13 40 34 59 48 18 14 56 44 84 67 28 24 54
43 58 43 3 0 15 -16 27 -36z m517 -148 l162 -165 -13 -37 c-11 -32 -10 -101 1
-113 3 -4 -59 -52 -116 -91 -12 -8 -28 -20 -34 -25 -32 -30 -78 -56 -85 -49
-17 19 -211 362 -211 373 0 6 -4 11 -10 11 -5 0 -10 4 -10 10 0 5 -18 39 -40
75 -22 36 -41 71 -43 77 -2 9 199 95 228 97 5 1 82 -73 171 -163z m1024 -18
c41 -45 90 -97 107 -116 27 -27 31 -37 23 -53 -10 -18 -25 -19 -358 -16 -294
2 -347 4 -347 16 0 15 455 250 485 251 8 0 49 -37 90 -82z m-1415 -54 c36 -62
65 -118 65 -124 0 -5 4 -10 9 -10 5 0 13 -10 17 -22 4 -13 10 -25 13 -28 4 -3
15 -21 25 -40 9 -19 42 -77 72 -129 30 -51 54 -97 54 -101 0 -3 -36 -33 -81
-64 l-80 -58 -27 23 c-15 13 -29 26 -32 29 -3 3 -41 36 -85 75 -44 38 -85 74
-91 80 -6 5 -42 37 -80 70 -121 106 -128 113 -166 147 l-38 33 16 44 c8 24 13
50 10 57 -3 7 0 17 7 21 28 18 303 119 314 115 7 -2 42 -55 78 -118z m2156 94
c35 -18 66 -35 69 -38 3 -3 85 -45 183 -93 97 -49 177 -90 177 -92 0 -2 -166
-4 -369 -5 -289 0 -370 3 -374 12 -2 7 39 54 91 103 52 50 106 102 120 118 14
15 28 27 32 27 4 0 36 -15 71 -32z m-2526 -343 c39 -34 153 -135 181 -160 18
-16 54 -48 79 -70 26 -22 70 -61 99 -88 l51 -47 -21 -18 c-12 -9 -34 -26 -50
-37 -15 -11 -40 -31 -56 -44 -28 -23 -58 -23 -58 0 0 7 -6 20 -14 28 -7 9 -25
36 -38 61 -44 79 -65 116 -106 182 -21 36 -45 79 -53 97 -8 17 -17 31 -21 31
-5 0 -8 4 -8 10 0 5 -13 32 -30 58 -38 63 -38 73 2 36 18 -16 37 -33 43 -39z
m-75 -75 c0 -3 6 -12 12 -18 7 -7 29 -42 48 -77 19 -35 72 -128 118 -206 45
-77 82 -145 82 -149 0 -4 -57 -50 -126 -100 l-126 -93 -36 21 -37 21 -1 348
c0 191 2 352 4 357 4 7 62 -89 62 -104z m1050 5 l30 -16 0 -298 c0 -231 -3
-300 -12 -304 -13 -4 -27 15 -76 103 -14 25 -36 63 -49 85 -12 22 -26 47 -30
55 -4 8 -33 59 -65 113 -32 54 -58 102 -58 106 0 3 9 13 21 21 24 17 88 64
156 115 25 19 48 35 50 35 2 0 17 -7 33 -15z m-292 -230 c12 -19 22 -39 22
-45 0 -5 5 -10 10 -10 6 0 10 -4 10 -9 0 -5 43 -84 96 -176 112 -196 118 -210
78 -173 -16 15 -45 42 -65 60 -19 18 -60 53 -89 78 -30 25 -71 61 -91 80 -21
19 -61 55 -89 79 -50 44 -50 44 -31 63 11 10 24 18 30 18 5 0 11 3 13 8 4 9
71 62 78 62 3 0 15 -16 28 -35z m-88 -226 c47 -40 96 -83 109 -94 13 -11 33
-29 45 -40 12 -11 49 -44 83 -73 57 -49 62 -56 61 -92 0 -37 -7 -46 -105 -137
-181 -169 -175 -164 -187 -145 -24 38 -37 60 -73 122 -21 36 -46 79 -56 95 -9
17 -20 38 -23 48 -4 9 -10 17 -15 17 -5 0 -9 4 -9 9 0 5 -19 42 -43 83 -24 40
-58 99 -76 131 l-32 58 23 19 c13 11 26 19 29 20 3 0 15 8 27 18 11 9 32 25
46 36 14 10 34 24 43 32 15 11 22 9 43 -10 14 -12 63 -56 110 -97z m-320 -144
c27 -47 50 -90 50 -95 0 -6 5 -10 10 -10 6 0 10 -4 10 -8 0 -5 50 -94 110
-198 l110 -189 -42 -38 c-24 -21 -58 -52 -75 -68 l-33 -29 -47 42 c-27 24 -50
45 -53 48 -3 3 -39 34 -80 70 -41 36 -93 81 -115 101 -22 20 -65 58 -96 85
l-56 49 1 72 1 72 90 65 c50 36 96 71 104 78 12 11 52 37 58 38 1 0 25 -38 53
-85z m660 -284 c0 -9 -5 -22 -10 -27 -6 -6 -18 -26 -28 -45 -37 -70 -154 -264
-167 -278 -12 -13 -15 -12 -22 5 -4 10 -21 41 -37 67 l-29 48 65 62 c123 118
212 196 220 191 4 -3 8 -13 8 -23z m-850 -141 c36 -30 67 -57 70 -61 3 -3 45
-40 94 -83 125 -109 121 -103 104 -123 -16 -20 -118 -113 -124 -113 -1 0 -31
51 -66 112 -65 116 -79 141 -165 290 -28 48 -48 89 -46 92 3 3 19 -9 37 -27
17 -18 60 -57 96 -87z m-181 63 c14 -27 32 -59 41 -73 10 -14 30 -50 47 -80
17 -30 39 -71 50 -90 11 -19 48 -82 81 -140 l60 -105 -66 -63 c-133 -126 -196
-182 -204 -182 -5 0 -19 7 -31 15 l-22 14 1 358 c1 197 2 366 3 376 2 29 15
19 40 -30z m1102 -332 c2 -310 0 -374 -12 -382 -18 -11 -29 -11 -29 0 0 8 -18
39 -149 264 -56 97 -58 103 -37 132 7 11 24 38 36 60 12 22 53 92 91 156 38
64 69 121 69 127 0 9 21 22 27 17 2 -1 4 -169 4 -374z m-351 39 l32 -55 -27
-53 c-15 -29 -31 -51 -35 -50 -5 2 -32 24 -62 50 -29 25 -63 54 -75 65 -26 21
-25 23 55 97 l54 48 12 -23 c7 -13 28 -49 46 -79z m-145 -142 c40 -35 75 -68
78 -73 3 -6 -17 -48 -44 -93 -27 -45 -49 -87 -49 -92 0 -6 -4 -10 -10 -10 -5
0 -10 -5 -10 -11 0 -5 -11 -26 -23 -45 l-24 -34 -56 96 c-32 53 -57 103 -57
110 0 8 -4 14 -8 14 -5 0 -16 17 -26 37 l-17 37 73 68 c40 37 79 65 86 63 8
-3 46 -33 87 -67z m267 -71 c27 -45 60 -102 75 -127 26 -44 26 -45 3 -25 -41
34 -91 79 -138 120 l-44 41 22 37 c12 20 25 37 28 37 4 0 28 -37 54 -83z
m-532 -89 c13 -24 41 -74 64 -113 22 -38 41 -72 41 -75 1 -3 11 -20 22 -39 12
-19 21 -37 19 -40 -49 -89 -170 -291 -175 -291 -3 1 -29 22 -58 48 -28 26 -83
74 -121 107 l-70 60 1 55 c1 30 -2 64 -6 76 -6 17 10 37 99 120 59 54 114 107
123 117 23 26 35 21 61 -25z m460 -15 c19 -17 46 -41 60 -53 14 -12 36 -31 50
-43 14 -12 41 -36 62 -53 26 -22 34 -35 27 -45 -5 -8 -9 -24 -9 -35 0 -13 -26
-47 -67 -87 -137 -132 -206 -197 -209 -197 -2 0 -35 55 -71 120 -11 19 -34 60
-52 91 l-31 56 47 80 c27 44 66 112 88 151 44 77 38 76 105 15z m-206 -432
c36 -62 66 -119 66 -125 0 -6 -34 -43 -76 -83 -87 -82 -79 -82 -166 -1 l-57
53 33 55 c18 30 55 92 81 137 27 46 50 82 51 80 1 -1 32 -53 68 -116z m442 62
c7 -7 17 -13 21 -13 5 0 18 -8 29 -18 18 -17 19 -35 19 -387 -1 -258 -4 -370
-12 -372 -6 -2 -55 74 -109 169 -53 95 -126 221 -160 280 -34 59 -65 116 -69
127 -4 15 6 31 46 68 29 26 86 81 128 120 65 63 77 70 85 55 5 -9 15 -23 22
-29z m-925 -83 c40 -36 95 -85 122 -111 l50 -45 -39 -61 c-42 -67 -38 -68 -76
7 -7 14 -15 27 -18 30 -3 3 -19 28 -35 55 -17 28 -34 57 -40 66 -5 9 -18 32
-29 50 -10 19 -25 42 -33 51 -17 19 -8 42 11 31 8 -5 46 -37 87 -73z m-40
-170 l101 -169 -106 -183 c-58 -101 -106 -176 -107 -168 -5 83 -2 697 3 694 4
-3 53 -81 109 -174z m652 -37 c13 -21 35 -58 49 -83 14 -25 57 -101 97 -169
39 -69 71 -126 71 -128 0 -1 16 -28 36 -59 43 -68 30 -61 -77 36 -15 14 -49
43 -75 65 -25 22 -58 51 -73 65 -21 21 -141 125 -188 165 -8 7 6 28 55 77 37
37 70 67 74 68 4 0 18 -17 31 -37z m-337 -35 c29 -24 55 -49 59 -57 4 -9 -18
-37 -61 -78 -36 -35 -69 -63 -73 -63 -8 0 -61 87 -61 101 0 14 70 139 77 139
3 0 30 -19 59 -42z m143 -126 c9 -9 34 -32 56 -51 39 -33 184 -162 215 -191 9
-8 47 -42 85 -75 39 -33 82 -71 97 -84 20 -17 25 -28 19 -40 -9 -18 -8 -72 3
-111 6 -22 0 -31 -41 -66 -26 -23 -67 -59 -89 -80 -83 -78 -114 -104 -122
-104 -4 0 -26 30 -47 66 -48 80 -57 95 -162 270 -46 75 -83 140 -83 145 0 5
-4 9 -9 9 -5 0 -11 8 -15 18 -3 9 -26 49 -50 89 l-44 71 80 76 c44 42 83 76
86 76 2 0 12 -8 21 -18z m-289 -83 l23 -42 -79 -75 c-43 -42 -97 -92 -118
-111 -45 -41 -45 -41 34 94 26 44 59 101 74 128 15 26 30 47 35 47 4 0 18 -19
31 -41z m119 -197 c28 -46 51 -86 51 -88 0 -3 11 -20 25 -38 14 -18 25 -35 25
-38 0 -3 41 -72 90 -153 50 -81 90 -149 90 -152 0 -2 13 -24 30 -48 16 -24 28
-49 25 -57 -3 -7 -24 -29 -47 -48 -23 -19 -55 -47 -70 -62 -15 -16 -31 -28
-36 -28 -5 0 -24 14 -43 31 -43 38 -136 120 -169 149 -14 12 -41 36 -60 53
-39 35 -163 144 -196 172 -18 15 -20 22 -13 51 9 31 7 62 -6 103 -4 15 14 39
80 103 135 130 158 149 165 141 4 -4 31 -45 59 -91z m-271 -399 c36 -32 73
-65 82 -73 28 -25 90 -81 208 -185 61 -54 112 -101 112 -103 0 -2 -21 -23 -47
-45 -25 -23 -59 -54 -76 -69 -16 -16 -32 -28 -36 -28 -3 0 -22 24 -41 53 -19
28 -37 54 -40 57 -3 3 -22 27 -41 55 -18 27 -39 56 -46 65 -91 116 -204 283
-201 297 2 10 10 17 16 16 7 -2 12 2 12 7 0 24 36 6 98 -47z m1018 -339 c0
-200 -3 -364 -6 -364 -4 0 -55 81 -115 180 -115 191 -112 184 -75 240 5 8 35
60 66 115 31 55 64 114 74 130 9 17 22 41 29 53 7 13 16 21 19 17 4 -4 7 -171
8 -371z m-123 309 c-10 -15 -25 -39 -31 -53 -7 -14 -18 -34 -25 -45 -7 -11
-27 -48 -46 -82 -19 -35 -37 -63 -40 -63 -3 0 -18 20 -33 45 l-26 44 76 68
c42 37 89 80 106 95 36 33 45 29 19 -9z m-907 -228 c59 -82 112 -151 116 -153
4 -2 8 -8 8 -13 0 -5 18 -32 40 -61 40 -53 48 -73 32 -80 -5 -1 -42 -33 -83
-70 -124 -112 -154 -138 -159 -138 -3 1 -20 14 -39 30 l-33 29 0 293 c1 325 1
323 6 317 1 -2 52 -71 112 -154z m693 -25 c17 -28 31 -56 31 -63 -1 -6 -18
-40 -38 -74 l-38 -61 -68 61 -68 61 68 63 c38 34 72 62 76 63 3 0 20 -23 37
-50z m-207 -140 c6 0 20 -10 32 -22 12 -13 39 -38 59 -56 20 -18 37 -36 37
-40 0 -4 -23 -45 -50 -92 l-49 -85 -53 0 c-53 0 -53 0 -92 55 -21 30 -42 57
-46 60 -4 3 -11 14 -17 24 -9 16 -5 25 21 51 67 68 140 127 144 116 2 -6 8
-11 14 -11z m345 -87 c129 -214 145 -243 134 -243 -5 0 -27 15 -48 34 -21 19
-62 56 -92 83 -30 26 -68 60 -84 76 -17 15 -34 27 -39 27 -4 0 6 29 24 64 18
35 36 61 40 59 4 -2 33 -47 65 -100z m-111 -115 c27 -24 51 -45 54 -48 3 -3
38 -34 78 -69 39 -35 72 -68 72 -73 0 -12 -320 -5 -322 7 -1 6 -10 19 -20 29
-17 19 -17 22 19 85 20 36 42 76 48 88 5 13 13 23 16 23 3 0 28 -19 55 -42z
m-443 -12 c15 -19 27 -40 27 -45 0 -6 3 -11 8 -11 4 0 15 -12 23 -27 16 -25
15 -28 -10 -64 l-26 -38 -150 0 -150 -1 51 48 c113 103 189 171 194 172 3 0
17 -16 33 -34z"/>
</g>
</svg>
