<svg height="46px" data-v-423bf9ae="" xmlns="http://www.w3.org/2000/svg" viewBox="0 0 337 90" class="iconLeft"><!----><!----><!----><g data-v-423bf9ae="" id="08776c08-6974-4aca-a46a-82a400237d2f" fill="white" transform="matrix(4.392386436462402,0,0,4.392386436462402,104.20205688476562,5.819912433624268)"><path d="M1.62 13.09L1.62 13.09Q1.48 13.09 1.40 13.01L1.40 13.01L1.40 13.01Q1.32 12.92 1.32 12.78L1.32 12.78L1.32 3.61L1.32 3.61Q1.32 3.47 1.40 3.38L1.40 3.38L1.40 3.38Q1.48 3.29 1.62 3.29L1.62 3.29L7.03 3.29L7.03 3.29Q7.18 3.29 7.27 3.37L7.27 3.37L7.27 3.37Q7.35 3.46 7.35 3.61L7.35 3.61L7.35 3.82L7.35 3.82Q7.35 3.96 7.26 4.05L7.26 4.05L7.26 4.05Q7.17 4.13 7.03 4.13L7.03 4.13L2.20 4.13L2.20 7.90L6.75 7.90L6.75 7.90Q6.90 7.90 6.99 7.98L6.99 7.98L6.99 7.98Q7.07 8.06 7.07 8.22L7.07 8.22L7.07 8.43L7.07 8.43Q7.07 8.57 6.98 8.65L6.98 8.65L6.98 8.65Q6.89 8.74 6.75 8.74L6.75 8.74L2.20 8.74L2.20 12.78L2.20 12.78Q2.20 12.92 2.11 13.01L2.11 13.01L2.11 13.01Q2.02 13.09 1.88 13.09L1.88 13.09L1.62 13.09ZM11.07 13.23L11.07 13.23Q10.40 13.23 9.83 12.95L9.83 12.95L9.83 12.95Q9.25 12.67 8.91 12.19L8.91 12.19L8.91 12.19Q8.57 11.72 8.57 11.14L8.57 11.14L8.57 11.14Q8.57 10.22 9.32 9.63L9.32 9.63L9.32 9.63Q10.07 9.04 11.34 8.88L11.34 8.88L13.55 8.57L13.55 8.08L13.55 8.08Q13.55 7.31 13.08 6.89L13.08 6.89L13.08 6.89Q12.61 6.48 11.65 6.48L11.65 6.48L11.65 6.48Q10.93 6.48 10.48 6.76L10.48 6.76L10.48 6.76Q10.02 7.04 9.90 7.43L9.90 7.43L9.90 7.43Q9.84 7.60 9.77 7.67L9.77 7.67L9.77 7.67Q9.69 7.73 9.56 7.73L9.56 7.73L9.37 7.73L9.37 7.73Q9.24 7.73 9.15 7.64L9.15 7.64L9.15 7.64Q9.06 7.55 9.06 7.42L9.06 7.42L9.06 7.42Q9.06 7.11 9.34 6.70L9.34 6.70L9.34 6.70Q9.62 6.29 10.21 5.98L10.21 5.98L10.21 5.98Q10.79 5.67 11.65 5.67L11.65 5.67L11.65 5.67Q13.15 5.67 13.78 6.38L13.78 6.38L13.78 6.38Q14.41 7.10 14.41 8.12L14.41 8.12L14.41 12.78L14.41 12.78Q14.41 12.92 14.32 13.01L14.32 13.01L14.32 13.01Q14.24 13.09 14.10 13.09L14.10 13.09L13.86 13.09L13.86 13.09Q13.72 13.09 13.64 13.01L13.64 13.01L13.64 13.01Q13.55 12.92 13.55 12.78L13.55 12.78L13.55 12.12L13.55 12.12Q13.24 12.59 12.65 12.91L12.65 12.91L12.65 12.91Q12.05 13.23 11.07 13.23L11.07 13.23ZM11.21 12.42L11.21 12.42Q12.24 12.42 12.89 11.75L12.89 11.75L12.89 11.75Q13.55 11.07 13.55 9.81L13.55 9.81L13.55 9.34L11.75 9.59L11.75 9.59Q10.60 9.74 10.01 10.12L10.01 10.12L10.01 10.12Q9.42 10.50 9.42 11.07L9.42 11.07L9.42 11.07Q9.42 11.72 9.96 12.07L9.96 12.07L9.96 12.07Q10.50 12.42 11.21 12.42L11.21 12.42ZM19.25 13.23L19.25 13.23Q17.74 13.23 17.02 12.24L17.02 12.24L17.02 12.24Q16.30 11.26 16.25 9.84L16.25 9.84L16.24 9.45L16.25 9.06L16.25 9.06Q16.30 7.64 17.02 6.66L17.02 6.66L17.02 6.66Q17.74 5.67 19.25 5.67L19.25 5.67L19.25 5.67Q20.78 5.67 21.60 6.78L21.60 6.78L21.60 3.46L21.60 3.46Q21.60 3.32 21.69 3.23L21.69 3.23L21.69 3.23Q21.77 3.15 21.91 3.15L21.91 3.15L22.15 3.15L22.15 3.15Q22.29 3.15 22.37 3.23L22.37 3.23L22.37 3.23Q22.46 3.32 22.46 3.46L22.46 3.46L22.46 12.78L22.46 12.78Q22.46 12.92 22.37 13.01L22.37 13.01L22.37 13.01Q22.29 13.09 22.15 13.09L22.15 13.09L21.91 13.09L21.91 13.09Q21.77 13.09 21.69 13.01L21.69 13.01L21.69 13.01Q21.60 12.92 21.60 12.78L21.60 12.78L21.60 12.12L21.60 12.12Q20.79 13.23 19.25 13.23L19.25 13.23ZM19.33 12.42L19.33 12.42Q20.44 12.42 21 11.68L21 11.68L21 11.68Q21.56 10.95 21.60 9.95L21.60 9.95L21.60 9.95Q21.62 9.81 21.62 9.41L21.62 9.41L21.62 9.41Q21.62 9.00 21.60 8.86L21.60 8.86L21.60 8.86Q21.59 8.26 21.34 7.72L21.34 7.72L21.34 7.72Q21.08 7.18 20.58 6.83L20.58 6.83L20.58 6.83Q20.08 6.48 19.33 6.48L19.33 6.48L19.33 6.48Q18.20 6.48 17.68 7.20L17.68 7.20L17.68 7.20Q17.15 7.92 17.11 9.06L17.11 9.06L17.09 9.45L17.09 9.45Q17.09 10.75 17.60 11.58L17.60 11.58L17.60 11.58Q18.10 12.42 19.33 12.42L19.33 12.42ZM25.97 15.75L25.97 15.75Q25.86 15.75 25.77 15.67L25.77 15.67L25.77 15.67Q25.69 15.58 25.69 15.47L25.69 15.47L25.69 15.47Q25.69 15.40 25.77 15.19L25.77 15.19L26.85 12.67L24.18 6.37L24.18 6.37Q24.09 6.16 24.09 6.09L24.09 6.09L24.09 6.09Q24.09 5.98 24.18 5.89L24.18 5.89L24.18 5.89Q24.26 5.81 24.37 5.81L24.37 5.81L24.67 5.81L24.67 5.81Q24.89 5.81 24.99 6.02L24.99 6.02L27.34 11.56L29.75 6.02L29.75 6.02Q29.86 5.81 30.07 5.81L30.07 5.81L30.35 5.81L30.35 5.81Q30.46 5.81 30.55 5.89L30.55 5.89L30.55 5.89Q30.63 5.98 30.63 6.09L30.63 6.09L30.63 6.09Q30.63 6.16 30.55 6.37L30.55 6.37L26.57 15.54L26.57 15.54Q26.47 15.75 26.25 15.75L26.25 15.75L25.97 15.75ZM36.29 13.09L36.29 13.09Q36.15 13.09 36.06 13.01L36.06 13.01L36.06 13.01Q35.98 12.92 35.98 12.78L35.98 12.78L35.98 3.60L35.98 3.60Q35.98 3.46 36.06 3.37L36.06 3.37L36.06 3.37Q36.15 3.29 36.29 3.29L36.29 3.29L36.55 3.29L36.55 3.29Q36.69 3.29 36.78 3.37L36.78 3.37L36.78 3.37Q36.86 3.46 36.86 3.60L36.86 3.60L36.86 12.78L36.86 12.78Q36.86 12.92 36.78 13.01L36.78 13.01L36.78 13.01Q36.69 13.09 36.55 13.09L36.55 13.09L36.29 13.09ZM38.84 14.27L38.84 14.27Q38.72 14.27 38.64 14.18L38.64 14.18L38.64 14.18Q38.56 14.10 38.56 13.99L38.56 13.99L38.56 13.99Q38.56 13.93 38.60 13.82L38.60 13.82L43.41 2.30L43.41 2.30Q43.44 2.23 43.52 2.16L43.52 2.16L43.52 2.16Q43.60 2.09 43.72 2.09L43.72 2.09L43.96 2.09L43.96 2.09Q44.07 2.09 44.16 2.17L44.16 2.17L44.16 2.17Q44.24 2.25 44.24 2.37L44.24 2.37L44.24 2.37Q44.24 2.42 44.20 2.53L44.20 2.53L39.38 14.06L39.38 14.06Q39.35 14.13 39.28 14.20L39.28 14.20L39.28 14.20Q39.20 14.27 39.07 14.27L39.07 14.27L38.84 14.27ZM49.24 13.23L49.24 13.23Q45.64 13.23 45.54 9.37L45.54 9.37L45.54 9.37Q45.53 8.95 45.53 8.19L45.53 8.19L45.53 8.19Q45.53 7.43 45.54 7.01L45.54 7.01L45.54 7.01Q45.60 5.11 46.58 4.13L46.58 4.13L46.58 4.13Q47.56 3.15 49.24 3.15L49.24 3.15L49.24 3.15Q50.92 3.15 51.90 4.13L51.90 4.13L51.90 4.13Q52.88 5.11 52.93 7.01L52.93 7.01L52.93 7.01Q52.96 7.85 52.96 8.19L52.96 8.19L52.96 8.19Q52.96 8.53 52.93 9.37L52.93 9.37L52.93 9.37Q52.84 13.23 49.24 13.23L49.24 13.23ZM49.24 12.39L49.24 12.39Q50.50 12.39 51.25 11.63L51.25 11.63L51.25 11.63Q52.00 10.86 52.05 9.30L52.05 9.30L52.05 9.30Q52.08 8.46 52.08 8.19L52.08 8.19L52.08 8.19Q52.08 7.92 52.05 7.08L52.05 7.08L52.05 7.08Q52.00 5.52 51.24 4.75L51.24 4.75L51.24 4.75Q50.48 3.99 49.24 3.99L49.24 3.99L49.24 3.99Q47.99 3.99 47.24 4.75L47.24 4.75L47.24 4.75Q46.48 5.52 46.42 7.08L46.42 7.08L46.42 7.08Q46.41 7.50 46.41 8.19L46.41 8.19L46.41 8.19Q46.41 8.88 46.42 9.30L46.42 9.30L46.42 9.30Q46.48 10.86 47.23 11.63L47.23 11.63L47.23 11.63Q47.98 12.39 49.24 12.39L49.24 12.39Z"></path></g><!----><g data-v-423bf9ae="" id="58cfdb5e-2160-49b5-bcea-7ca3a5f9233d" transform="matrix(1,0,0,1,-5,-5)" stroke="none" fill="white"><g clip-rule="evenodd"><path d="M50 27.28c-12.528 0-22.72 10.192-22.72 22.72 0 12.528 10.191 22.721 22.72 22.721S72.72 62.528 72.72 50 62.528 27.28 50 27.28zm9.062 14.47H46.507v7.17h10.865v2.731H46.507v10.518h-3.063V39.018h15.618v2.732z"></path><path d="M50 5C25.147 5 5 25.146 5 50c0 24.853 20.147 45 45 45s45-20.147 45-45C95 25.146 74.853 5 50 5zm0 70.378c-13.993 0-25.377-11.384-25.377-25.378 0-13.993 11.384-25.378 25.377-25.378S75.377 36.007 75.377 50c0 13.994-11.384 25.378-25.377 25.378z"></path></g></g><!----></svg>
